<svg width="16" height="16" viewBox="0 0 16 16" fill="none" xmlns="http://www.w3.org/2000/svg">
<path d="M8.00004 6.95833C8.34522 6.95833 8.62504 7.23815 8.62504 7.58333V11.75C8.62504 12.0952 8.34522 12.375 8.00004 12.375C7.65486 12.375 7.37504 12.0952 7.37504 11.75V7.58333C7.37504 7.23815 7.65486 6.95833 8.00004 6.95833Z" fill="#636363"/>
<path d="M8.00004 5.49999C8.46028 5.49999 8.83337 5.1269 8.83337 4.66666C8.83337 4.20642 8.46028 3.83333 8.00004 3.83333C7.5398 3.83333 7.16671 4.20642 7.16671 4.66666C7.16671 5.1269 7.5398 5.49999 8.00004 5.49999Z" fill="#636363"/>
<path fill-rule="evenodd" clip-rule="evenodd" d="M0.708374 7.99999C0.708374 3.97292 3.97296 0.708328 8.00004 0.708328C12.0271 0.708328 15.2917 3.97292 15.2917 7.99999C15.2917 12.0271 12.0271 15.2917 8.00004 15.2917C3.97296 15.2917 0.708374 12.0271 0.708374 7.99999ZM8.00004 1.95833C4.66332 1.95833 1.95837 4.66327 1.95837 7.99999C1.95837 11.3367 4.66332 14.0417 8.00004 14.0417C11.3368 14.0417 14.0417 11.3367 14.0417 7.99999C14.0417 4.66327 11.3368 1.95833 8.00004 1.95833Z" fill="#636363"/>
</svg>
