<svg id="drink" xmlns="http://www.w3.org/2000/svg" viewBox="0 0 24 24" height="24" width="24"><rect id="Rectangle_3500" data-name="Rectangle 3500" x="3.93" y="3.65" width="16" height="16" style="fill:none"/><path id="drink-2" d="M24.07,5.3v0a4.62,4.62,0,0,1-3.6,4.49h0V5.3h-6V5.13A4.8,4.8,0,0,1,19.06.35h.13a4.86,4.86,0,0,1,4.87,4.53v.41ZM18,6.49H1.27A1.25,1.25,0,0,0,.07,7.74v0h0v.05a1,1,0,0,0,.32.74h0l8,8V22H4.9v2.39h9.57V22H10.86V16.54l8.05-8a1.14,1.14,0,0,0,0-1.63l-.05,0h0a1,1,0,0,0-.8-.4ZM4.33,5.3H7.72L4.5,2.1a1.07,1.07,0,0,0-.76-.32H.07V4.17H3.21Z" transform="translate(-0.07 -0.35)"/></svg>