<?xml version="1.0" encoding="utf-8"?>
<!-- Generator: Adobe Illustrator 27.5.0, SVG Export Plug-In . SVG Version: 6.00 Build 0)  -->
<svg version="1.1" id="Layer_1" xmlns="http://www.w3.org/2000/svg" xmlns:xlink="http://www.w3.org/1999/xlink" x="0px" y="0px"
	 viewBox="0 0 100 100" style="enable-background:new 0 0 100 100;" xml:space="preserve">
<style type="text/css">
	.st0{fill:#FFFFFF;}
	.st1{fill:#7F3BFF;}
</style>
<rect y="0" class="st0" width="100" height="100"/>
<path class="st1" d="M62.3,46.7c0.5-3.6-2.1-5.5-5.7-6.8l1.2-4.8l-2.8-0.7L53.8,39c-0.7-0.2-1.5-0.4-2.3-0.6l1.1-4.7L49.8,33
	l-1.2,4.8c-0.6-0.1-1.2-0.3-1.8-0.4l0,0l-3.9-1l-0.8,3.1c0,0,2.1,0.5,2.1,0.5c1.1,0.3,1.4,1.1,1.3,1.7l-1.3,5.5
	c0.1,0,0.2,0.1,0.3,0.1c-0.1,0-0.2-0.1-0.3-0.1L42.4,55c-0.1,0.4-0.5,0.9-1.3,0.7c0,0-2.1-0.5-2.1-0.5l-1.4,3.4l3.7,1
	c0.7,0.2,1.4,0.4,2,0.5l-1.2,4.9l2.8,0.7l1.2-4.8c0.8,0.2,1.5,0.4,2.3,0.6l-1.2,4.8l2.8,0.7l1.2-4.9c4.8,1,8.5,0.6,10-4
	c1.2-3.7-0.1-5.8-2.6-7.1C60.5,50.5,61.9,49.3,62.3,46.7z M55.8,56.1c-0.9,3.7-6.8,1.7-8.7,1.2l1.6-6.5
	C50.6,51.3,56.7,52.3,55.8,56.1z M56.7,46.6c-0.8,3.3-5.7,1.6-7.3,1.2l1.4-5.9C52.4,42.4,57.5,43.1,56.7,46.6z"/>
</svg>
