<svg width="32" height="20" viewBox="0 0 32 20" fill="none" xmlns="http://www.w3.org/2000/svg">
<path d="M4.58408 20L5.85655 13.652H7.927L6.66172 20H4.58408ZM10.8314 17.9224H12.147L11.8091 15.5931L10.8314 17.9224ZM7.927 20L11.0614 13.652H13.1031L14.39 20H12.4705L12.3555 19.2451H10.3138L9.99026 20H7.927ZM16.2951 20L17.0068 15.2265H15.1952L15.5043 13.6233H21.0686L20.7595 15.2265H19.0341L18.3368 20H16.2951ZM23.2541 17.9224H24.5697L24.2318 15.5931L23.2541 17.9224ZM20.3569 20L23.4842 13.652H25.5258L26.8127 20H24.8788L24.7854 19.2451H22.7437L22.4202 20H20.3569ZM31.3346 6.47735H21.5934C21.234 8.26024 19.9975 9.74838 17.5316 10.7764C17.812 11.6247 18.7681 12.4083 19.7602 12.4083H25.0442C25.8494 12.4083 26.4892 11.7326 26.748 11.1862H21.3778C21.0471 11.1287 21.0327 10.8627 21.3634 10.8339H26.6402C27.3231 10.8339 27.9414 10.2516 28.3008 9.61898H22.1542C21.845 9.56866 21.845 9.30985 22.1542 9.25953H28.3512C28.9766 9.25953 29.5445 8.53343 29.7818 8.04457H22.9809C22.643 8.00144 22.643 7.68512 22.9809 7.67793H29.904C30.4432 7.67793 30.968 7.08842 31.3346 6.47735ZM0.141235 6.47735H9.88243C10.2347 8.26024 11.4784 9.74838 13.9371 10.7764C13.6567 11.6247 12.7005 12.4083 11.7085 12.4083H6.43167C5.6265 12.4083 4.98667 11.7326 4.72786 11.1862H10.0981C10.4216 11.1287 10.4432 10.8627 10.1125 10.8339H4.82851C4.14555 10.8339 3.52729 10.2516 3.17502 9.61898H9.32887C9.638 9.56866 9.638 9.30985 9.32887 9.25953H3.13189C2.50644 9.25953 1.9385 8.53343 1.70126 8.04457H8.50213C8.84001 8.00144 8.84001 7.68512 8.50213 7.67793H1.57905C1.03268 7.67793 0.507878 7.08842 0.141235 6.47735ZM12.5783 1.12868C12.9378 1.43781 13.3404 1.711 13.7717 1.88354C14.1384 1.16463 14.6488 0.546369 15.2383 0C14.2678 0.129403 13.3547 0.496046 12.5783 1.12868ZM10.853 4.6729H13.0241C13.0744 3.78145 13.2613 2.99784 13.6136 2.19267C13.1319 1.97699 12.7149 1.71819 12.3123 1.37311C11.4137 2.27175 10.9177 3.42919 10.853 4.6729ZM15.569 2.63839V4.6729H13.3979C13.4123 3.87491 13.5992 3.05536 13.9371 2.31488C14.4547 2.5018 15.0154 2.62401 15.569 2.63839ZM18.8975 1.12868C18.5453 1.43781 18.1283 1.711 17.7041 1.88354C17.3159 1.15025 16.8343 0.560748 16.2304 0.00718907C17.2081 0.129403 18.1211 0.496046 18.8975 1.12868ZM20.6157 4.6729H18.4518C18.423 3.79583 18.2218 2.97628 17.8767 2.19267C18.3368 1.97699 18.7753 1.70381 19.1563 1.37311C20.0909 2.30769 20.5726 3.45794 20.6157 4.6729ZM15.9212 2.63839V4.6729H18.078C18.078 3.85334 17.8767 3.06973 17.5388 2.31488C17.0212 2.5018 16.4676 2.62401 15.9212 2.63839ZM12.5783 8.57656C12.9378 8.29619 13.3547 7.98706 13.7717 7.83609C14.1599 8.56218 14.6416 9.15888 15.2383 9.69806C14.2678 9.56866 13.3404 9.20201 12.5783 8.57656ZM10.853 5.02516H13.0241C13.0744 5.9238 13.2613 6.71459 13.6136 7.52696C13.1319 7.74263 12.7149 8.00144 12.3123 8.33932C11.4281 7.44788 10.9177 6.29044 10.853 5.02516ZM15.569 7.06686V5.02516H13.3979C13.4123 5.84472 13.5992 6.65708 13.9371 7.38318C14.4547 7.19626 15.0154 7.08124 15.569 7.06686ZM18.8975 8.57656C18.5596 8.28181 18.1283 8.00863 17.7041 7.83609C17.3159 8.56218 16.8343 9.15888 16.2304 9.69806C17.2081 9.56866 18.1211 9.20201 18.8975 8.57656ZM20.6157 5.02516H18.4518C18.423 5.9238 18.2289 6.72178 17.8767 7.52696C18.3368 7.74263 18.7537 8.00144 19.1563 8.33932C20.0478 7.44788 20.5726 6.26168 20.6157 5.02516ZM15.9212 7.06686V5.02516H18.078C18.078 5.84472 17.8767 6.6427 17.5388 7.38318C17.0356 7.19626 16.4532 7.08124 15.9212 7.06686ZM15.569 0.208483C14.9795 0.682962 14.4547 1.32998 14.1096 2.00575C14.5769 2.16391 15.0729 2.29331 15.569 2.29331V0.208483ZM15.9212 0.208483C16.4964 0.682962 17.0212 1.30841 17.3663 2.00575C16.899 2.17829 16.4029 2.29331 15.9212 2.29331V0.208483ZM15.569 9.49676C14.9795 9.02948 14.4547 8.38246 14.1096 7.69231C14.5769 7.52696 15.0729 7.4335 15.569 7.4335V9.49676ZM15.9212 9.51114C16.4964 9.02947 17.0212 8.38246 17.3663 7.69231C16.899 7.54134 16.4029 7.4335 15.9212 7.4335V9.51114Z" fill="#091A4B"/>
</svg>
