<svg xmlns="http://www.w3.org/2000/svg" viewBox="0 0 100 30">
    <path d="M96,64.16a2,2,0,0,0-.45-.87L93.5,61.37a1.15,1.15,0,0,0-.87-.28l-2.38.39a1.13,1.13,0,0,0-.73.53l-1.16,2.43a1.77,1.77,0,0,0-.14,1L89.87,75a.88.88,0,0,0,1,.7l6.27-1c.47-.08.61-.49.53-1Zm-3.84.6a1.37,1.37,0,0,1-1.57-1.12,1.36,1.36,0,0,1,2.69-.44h0a1.36,1.36,0,0,1-1.12,1.56Z" transform="translate(-12.5 -47.08)" fill="#6dcff6" />
    <path d="M95.47,65.87a1.93,1.93,0,0,0-.2-1l-1.53-2.6a1.24,1.24,0,0,0-.82-.57l-2.56-.34a1.19,1.19,0,0,0-.93.33l-2,2.15a2,2,0,0,0-.44.94L85.75,75.13a.94.94,0,0,0,.8,1l6.79.91c.5.07.78-.31.85-.82Zm-4.16-.56a1.45,1.45,0,0,1-1.26-1.64,1.47,1.47,0,0,1,2.91.39h0a1.47,1.47,0,0,1-1.64,1.27h0Z" transform="translate(-12.5 -47.08)" fill="#be1e2d" />
    <path d="M38.33,48.24H34.61V58.36a.43.43,0,0,1-.47.48h-.33a.45.45,0,0,1-.49-.4V48.24h-3.7a.45.45,0,0,1-.48-.41v-.27a.46.46,0,0,1,.42-.48h8.78a.45.45,0,0,1,.49.41v.27A.46.46,0,0,1,38.33,48.24Zm42.1,10a.47.47,0,0,1,0,.43.43.43,0,0,1-.35.14h-.37a.49.49,0,0,1-.54-.37L77.9,55.15H73.31L72.1,58.48a.49.49,0,0,1-.53.37h-.35a.46.46,0,0,1-.38-.14.48.48,0,0,1,0-.42l4-10.83a.5.5,0,0,1,.52-.38h.55a.5.5,0,0,1,.52.38ZM76,49.9c-.13-.4-.3-1-.38-1.34-.12.45-.26.9-.4,1.34L73.7,54h3.83ZM36.3,74a.36.36,0,0,1-.34.59h-.43A.56.56,0,0,1,35,74.3l-2.47-4.58H29.67v4.42a.43.43,0,0,1-.47.48h-.34a.43.43,0,0,1-.47-.48V63.32a.43.43,0,0,1,.47-.48H32a5.13,5.13,0,0,1,2.15.33,3.13,3.13,0,0,1,1.77,3,3.25,3.25,0,0,1-2.18,3.24,4.92,4.92,0,0,1,.26.43Zm-2.88-9.8a3.26,3.26,0,0,0-1.5-.22H29.66v4.55h2.71a2.16,2.16,0,0,0,2.24-2.36A2,2,0,0,0,33.42,64.23ZM30.2,58.85a.44.44,0,0,0,.48-.41.09.09,0,0,0,0-.07v-.2a.44.44,0,0,0-.48-.48H25.27V47.56a.44.44,0,0,0-.47-.48h-.35a.43.43,0,0,0-.47.48V58.37a.43.43,0,0,0,.47.48Zm-5.07,4h-.35a.43.43,0,0,0-.47.48V74.13a.43.43,0,0,0,.47.48h.35a.43.43,0,0,0,.47-.48V63.32A.44.44,0,0,0,25.13,62.84Zm15.74-4H47a.44.44,0,0,0,.48-.41v-.27a.45.45,0,0,0-.42-.48H41.7V53.51h3.95a.45.45,0,0,0,.49-.4V52.8a.42.42,0,0,0-.48-.45h-4V48.24h4.95a.44.44,0,0,0,.49-.48v-.2a.45.45,0,0,0-.41-.48H40.88a.43.43,0,0,0-.47.48V58.37a.43.43,0,0,0,.47.48Zm-18.7-.57a.46.46,0,0,1,0,.44.4.4,0,0,1-.35.13H21.4a.49.49,0,0,1-.53-.37l-1.23-3.33H15l-1.21,3.33a.48.48,0,0,1-.53.37H13a.46.46,0,0,1-.38-.14.52.52,0,0,1,0-.42l4-10.83a.5.5,0,0,1,.52-.38h.55a.5.5,0,0,1,.51.38ZM17.75,49.9c-.13-.4-.3-1-.38-1.34-.12.45-.25.9-.4,1.34L15.44,54h3.83Zm4.41,24.15a.47.47,0,0,1,0,.43.4.4,0,0,1-.36.15H21.4a.52.52,0,0,1-.53-.39l-1.24-3.32H15l-1.21,3.33a.52.52,0,0,1-.54.38H13a.44.44,0,0,1-.38-.15.5.5,0,0,1,0-.43l4-10.82a.5.5,0,0,1,.52-.38h.54a.48.48,0,0,1,.52.38Zm-4.42-8.4c-.14-.4-.3-1-.39-1.33-.08.32-.26.94-.4,1.33l-1.52,4.13h3.82Zm94.27-8h-5.25V53.51h3.95a.46.46,0,0,0,.5-.48v-.22c0-.3-.19-.45-.5-.45h-3.95V48.24h4.95a.44.44,0,0,0,.49-.4v-.28a.45.45,0,0,0-.42-.48h-5.84a.43.43,0,0,0-.47.48V58.37a.43.43,0,0,0,.47.48H112a.44.44,0,0,0,.49-.4v-.28A.44.44,0,0,0,112,57.69Zm-8.73-10.6h-.38a.5.5,0,0,0-.52.38L99.23,56c-.15.43-.32,1-.4,1.32-.08-.3-.25-.89-.4-1.32l-3.11-8.51a.51.51,0,0,0-.54-.38H94.4a.44.44,0,0,0-.38.15.43.43,0,0,0,0,.42l4,10.83a.5.5,0,0,0,.52.37h.58a.5.5,0,0,0,.5-.37l4.06-10.83a.5.5,0,0,0,0-.43.43.43,0,0,0-.35-.14ZM67.58,58.56a.59.59,0,0,0,.55.29h.4a.42.42,0,0,0,.47-.47V47.56a.43.43,0,0,0-.47-.48H68.2a.45.45,0,0,0-.49.4v8c0,.42.05,1,.08,1.33-.19-.32-.56-1-.85-1.37l-5.78-8.1a.63.63,0,0,0-.56-.3h-.4a.43.43,0,0,0-.47.48V58.37a.43.43,0,0,0,.47.48h.35a.43.43,0,0,0,.47-.48v-8c0-.41-.05-1-.08-1.32.27.46.55.92.85,1.36ZM76,68.11c-1.3-.57-2.54-1.09-2.54-2.34s1-1.89,2.37-1.89a3.94,3.94,0,0,1,2.21.73.56.56,0,0,0,.4.1.51.51,0,0,0,.28-.24l.15-.26a.44.44,0,0,0-.12-.64,4.78,4.78,0,0,0-2.88-.92c-2.2,0-3.73,1.3-3.73,3.18s1.62,2.66,3.18,3.35c1.36.59,2.64,1.15,2.64,2.49,0,1.15-.92,1.93-2.3,1.93a4.39,4.39,0,0,1-2.66-1,.45.45,0,0,0-.68.06l-.2.25a.48.48,0,0,0,.06.68,5.62,5.62,0,0,0,3.47,1.24,3.31,3.31,0,0,0,3.63-3.27c0-2.06-1.74-2.79-3.27-3.45Zm-5.85,5.35H64.88V69.28h4a.46.46,0,0,0,.5-.4v-.3a.44.44,0,0,0-.5-.47h-4V64h5a.45.45,0,0,0,.49-.4v-.28a.45.45,0,0,0-.41-.48H64.06a.43.43,0,0,0-.47.48V74.14a.44.44,0,0,0,.47.49h6.07a.45.45,0,0,0,.49-.4v-.29a.45.45,0,0,0-.41-.48ZM88.85,47.08H80.13a.45.45,0,0,0-.48.41v.28a.44.44,0,0,0,.42.47h3.77V58.38a.45.45,0,0,0,.41.48h.41a.43.43,0,0,0,.47-.48V48.24h3.72a.44.44,0,0,0,.49-.48v-.2a.45.45,0,0,0-.42-.48h-.07ZM60,62.84h-.34a.44.44,0,0,0-.48.41v8c0,.41,0,1,.08,1.32-.2-.32-.57-1-.85-1.36l-5.78-8.12a.62.62,0,0,0-.56-.29h-.4a.42.42,0,0,0-.46.48V74.13a.43.43,0,0,0,.46.48H52a.43.43,0,0,0,.47-.48v-8c0-.42,0-1-.07-1.33.19.32.56,1,.84,1.37l5.8,8.1a.6.6,0,0,0,.52.3H60a.44.44,0,0,0,.47-.49V63.33a.43.43,0,0,0-.47-.48Zm-12.4,0h-.34a.43.43,0,0,0-.47.48V74.13a.43.43,0,0,0,.47.48h.35a.43.43,0,0,0,.47-.48V63.32a.44.44,0,0,0-.47-.48ZM91.75,47.08H91.4a.43.43,0,0,0-.47.48V62.49a.44.44,0,0,0,.47.49h.35a.45.45,0,0,0,.47-.49V47.56A.44.44,0,0,0,91.75,47.08ZM53.73,54H50.89v4.42a.43.43,0,0,1-.47.47h-.35a.42.42,0,0,1-.47-.47V47.56a.43.43,0,0,1,.47-.48h3.16a5,5,0,0,1,2.16.34,3.13,3.13,0,0,1,1.77,3A3.29,3.29,0,0,1,55,53.65a3,3,0,0,1,.27.42l2.28,4.21a.43.43,0,0,1,0,.41.39.39,0,0,1-.38.16h-.43a.55.55,0,0,1-.54-.31Zm.92-5.51a3.3,3.3,0,0,0-1.5-.21H50.9v4.54h2.7a2.16,2.16,0,0,0,2.24-2.37,2.07,2.07,0,0,0-1.19-2Zm-9.93,25H39.8V63.33a.44.44,0,0,0-.47-.48H39a.43.43,0,0,0-.47.48V74.14a.44.44,0,0,0,.47.49h5.75a.45.45,0,0,0,.5-.39.34.34,0,0,0,0-.1v-.2a.45.45,0,0,0-.4-.49h-.11Z" transform="translate(-12.5 -47.08)" fill="#005aa9" />
</svg>