<?xml version="1.0" encoding="utf-8"?>
<!-- Generator: Adobe Illustrator 27.4.0, SVG Export Plug-In . SVG Version: 6.00 Build 0)  -->
<svg version="1.1" id="Layer_1" xmlns="http://www.w3.org/2000/svg" xmlns:xlink="http://www.w3.org/1999/xlink" x="0px" y="0px"
	 viewBox="0 0 100 100" style="enable-background:new 0 0 100 100;" xml:space="preserve">
<style type="text/css">
	.st0{fill:#FFFFFF;}
	.st1{fill:#FF5F00;}
	.st2{fill:#EB001B;}
	.st3{fill:#F79E1B;}
</style>
<rect class="st0" width="100" height="100"/>
<path class="st1" d="M53.4,43.7h-7v12.6h7V43.7z"/>
<path class="st2" d="M46.9,50c0-2.6,1.2-4.8,3-6.3c-1.3-1.1-3-1.7-4.9-1.7c-4.4,0-8,3.6-8,8s3.6,8,8,8c1.9,0,3.6-0.6,4.9-1.7
	C48.1,54.8,46.9,52.6,46.9,50z"/>
<path class="st3" d="M62.9,50c0,4.4-3.6,8-8,8c-1.9,0-3.6-0.6-4.9-1.7c1.9-1.5,3-3.7,3-6.3s-1.2-4.8-3-6.3c1.4-1.1,3.1-1.7,4.9-1.7
	C59.3,42,62.9,45.6,62.9,50z"/>
</svg>
