<svg width="16" height="16" viewBox="0 0 16 16" fill="none" xmlns="http://www.w3.org/2000/svg">
<path d="M3.77601 10.704L3.02141 12.5899C2.99966 12.6443 2.99434 12.7038 3.0061 12.7611C3.01786 12.8184 3.04618 12.8711 3.08757 12.9124C3.12895 12.9538 3.18156 12.9821 3.23889 12.9939C3.29622 13.0057 3.35574 13.0003 3.41007 12.9786L5.29657 12.224C5.59731 12.1038 5.87051 11.9238 6.0996 11.6948L12.6285 5.16533C12.8664 4.92745 13 4.60482 13 4.26842C13 3.93201 12.8664 3.60939 12.6285 3.37151C12.3906 3.13364 12.068 3 11.7316 3C11.3952 3 11.0725 3.13364 10.8347 3.37151L4.30518 9.901C4.07624 10.1301 3.89621 10.4033 3.77601 10.704Z" fill="#2990E6"/>
</svg>
