<svg width="36" height="36" viewBox="0 0 36 36" fill="none" xmlns="http://www.w3.org/2000/svg">
<rect width="36" height="36" rx="18" fill="#BDBFC6"/>
<path d="M22.375 14.875H13.625C12.8196 14.875 12.1667 15.5745 12.1667 16.4375V23.7292C12.1667 24.5921 12.8196 25.2917 13.625 25.2917H14.1111V25.8125C14.1111 26.1003 14.3286 26.3333 14.5972 26.3333H15.5694C15.838 26.3333 16.0555 26.1003 16.0555 25.8125V25.2917H19.9444V25.8125C19.9444 26.1003 20.162 26.3333 20.4305 26.3333H21.4028C21.6713 26.3333 21.8889 26.1003 21.8889 25.8125V25.2917H22.375C23.1804 25.2917 23.8333 24.5921 23.8333 23.7292V16.4375C23.8333 15.5745 23.1804 14.875 22.375 14.875ZM21.8889 21.9063C21.8889 22.0501 21.7801 22.1667 21.6458 22.1667H14.3542C14.2199 22.1667 14.1111 22.0501 14.1111 21.9063V21.3854C14.1111 21.2415 14.2199 21.125 14.3542 21.125H21.6458C21.7801 21.125 21.8889 21.2415 21.8889 21.3854V21.9063ZM21.8889 18.7813C21.8889 18.9251 21.7801 19.0417 21.6458 19.0417H14.3542C14.2199 19.0417 14.1111 18.9251 14.1111 18.7813V18.2604C14.1111 18.1165 14.2199 18 14.3542 18H21.6458C21.7801 18 21.8889 18.1165 21.8889 18.2604V18.7813ZM16.5417 11.2292H19.4583V13.8333H20.9167V11.2292C20.9167 10.3662 20.2637 9.66667 19.4583 9.66667H16.5417C15.7362 9.66667 15.0833 10.3662 15.0833 11.2292V13.8333H16.5417V11.2292Z" fill="white"/>
</svg>
