<svg version="1.1" id="Layer_1" xmlns="http://www.w3.org/2000/svg" xmlns:xlink="http://www.w3.org/1999/xlink" x="0px" y="0px"
	 width="100%" viewBox="0 0 260 280" enable-background="new 0 0 260 280" xml:space="preserve">
<path fill="#FEFEFE" opacity="1.000000" stroke="none" 
	d="
M146.000000,281.000000 
	C97.333336,281.000000 49.166668,281.000000 1.000000,281.000000 
	C1.000000,187.666672 1.000000,94.333336 1.000000,1.000000 
	C87.666664,1.000000 174.333328,1.000000 261.000000,1.000000 
	C261.000000,94.333336 261.000000,187.666672 261.000000,281.000000 
	C222.833328,281.000000 184.666672,281.000000 146.000000,281.000000 
M128.791245,274.657257 
	C128.424713,274.395660 128.058197,274.134094 127.098351,273.915894 
	C126.803589,274.358551 126.508820,274.801208 126.214050,275.243866 
	C126.855255,275.111267 127.496468,274.978668 128.791245,274.657257 
M100.802452,270.549500 
	C100.747498,270.085419 100.692543,269.621338 100.637589,269.157257 
	C100.433586,269.282898 100.229584,269.408539 100.025574,269.534180 
	C100.360748,270.015381 100.695930,270.496582 100.993324,271.790436 
	C101.870018,273.121155 102.886856,275.666534 103.600502,275.584167 
	C108.015327,275.074738 112.367508,273.997925 116.710052,272.979706 
	C116.876320,272.940735 116.731239,271.573883 116.731239,271.639343 
	C113.223831,271.639343 110.013557,271.639343 106.418755,271.639343 
	C106.216095,272.246063 105.839279,273.374176 105.751999,273.635498 
	C103.960838,272.655396 102.472458,271.840942 100.802452,270.549500 
M150.867813,179.416016 
	C155.284149,179.416016 159.700485,179.416016 164.162186,179.416016 
	C164.162186,176.590652 164.162186,174.396591 164.162186,171.931030 
	C159.223053,171.931030 154.604294,171.931030 149.981064,171.523727 
	C149.917404,171.200287 149.720978,171.046997 149.361282,170.128433 
	C149.361282,165.883331 149.361282,161.638229 149.361282,157.470139 
	C152.462311,157.266846 154.772446,157.115402 156.863068,157.866928 
	C156.978195,159.935791 157.093307,162.004654 157.203171,163.978943 
	C159.827530,163.978943 162.045685,163.978943 164.377991,163.978943 
	C164.377991,161.571671 164.377991,159.491577 164.377991,157.048340 
	C161.803314,157.048340 159.389618,157.048340 157.107941,156.195831 
	C157.128632,154.473602 157.149323,152.751373 157.526627,150.790070 
	C157.737854,150.590439 157.901947,150.357590 158.939621,149.950668 
	C163.196747,149.950668 167.453857,149.950668 171.734131,149.950668 
	C171.734131,164.940872 171.734131,179.337250 171.734131,193.885925 
	C169.281708,193.885925 167.054794,193.885925 164.763306,193.885925 
	C164.633377,191.495056 164.518372,189.378937 164.393860,187.087555 
	C161.906158,187.087555 159.667221,187.087555 157.210052,187.087555 
	C157.077209,189.544754 156.955765,191.790878 156.822495,194.255646 
	C154.356903,194.255646 152.231735,194.255646 149.980789,194.255646 
	C149.756393,196.710846 149.553055,198.935730 149.345703,201.204529 
	C146.704590,201.392014 144.478195,201.550064 142.437729,201.694916 
	C142.437729,204.453186 142.437729,206.685822 142.437729,208.892700 
	C149.878555,208.892700 156.974625,208.892700 164.255875,208.892700 
	C164.438614,206.435364 164.606537,204.177048 164.825317,201.234909 
	C169.664963,201.234909 174.278122,201.234909 178.963455,202.087219 
	C178.963455,204.367798 178.963455,206.648361 178.963455,208.996918 
	C181.913788,208.996918 184.289078,208.996918 186.470551,208.996918 
	C186.470551,206.228699 186.470551,203.843231 186.470551,201.444672 
	C183.751114,201.253601 181.446335,201.091675 179.351288,200.089966 
	C179.351288,198.164093 179.351288,196.238235 179.351288,194.250198 
	C182.162231,194.067871 184.364426,193.925018 186.540298,193.783890 
	C186.712982,191.168930 186.852951,189.049423 187.915314,186.787735 
	C194.864532,186.787735 201.813751,186.787735 208.896881,186.787735 
	C208.896881,184.065659 208.896881,181.941040 208.896881,179.560211 
	C206.503754,179.382477 204.252808,179.215302 201.483704,179.009659 
	C201.483704,171.570068 201.483704,164.343491 201.483704,157.071732 
	C196.293396,157.071732 191.646683,157.071732 186.828644,156.189423 
	C186.828644,154.252029 186.828644,152.314651 186.828644,150.160690 
	C184.121674,149.968369 181.901901,149.810684 179.593994,149.646713 
	C179.432495,147.149460 179.286530,144.892426 179.114075,142.225555 
	C176.607285,142.225555 174.389984,142.225555 171.997818,142.225555 
	C171.997818,139.504700 171.997818,137.215744 172.906158,134.732727 
	C177.358765,134.732727 181.811371,134.732727 186.354614,134.732727 
	C186.354614,131.954941 186.354614,129.605072 186.354614,127.288437 
	C183.827606,127.120697 181.715317,126.980484 179.674408,126.845016 
	C179.674408,124.401413 179.674408,122.316887 179.674408,119.833488 
	C182.030441,119.833488 184.125351,119.833488 186.364471,119.833488 
	C186.364471,117.047783 186.364471,114.691772 186.364471,112.055313 
	C173.642029,112.055313 161.322327,112.055313 149.334839,111.163971 
	C149.334839,106.767250 149.334839,102.370529 149.334839,97.598389 
	C146.463058,97.754791 144.197510,97.878181 142.293381,97.174728 
	C142.172775,94.781891 142.052155,92.389053 142.803726,90.220718 
	C144.901779,90.220718 146.999847,90.220718 149.165619,90.220718 
	C149.165619,82.482948 149.165619,75.368042 149.165619,67.827927 
	C139.388474,67.827927 129.804855,67.827927 120.115295,67.827927 
	C120.115295,65.134911 120.115295,62.870094 120.115295,60.114861 
	C124.852089,60.114861 129.421555,60.114861 133.944534,60.114861 
	C133.944534,57.397923 133.944534,55.183933 133.944534,53.006538 
	C126.657486,53.006538 119.725685,53.006538 112.296204,53.006538 
	C112.296204,72.780106 112.296204,92.307396 112.296204,112.258224 
	C107.216049,112.258224 102.631393,112.258224 97.964813,112.258224 
	C97.964813,115.164322 97.964813,117.638908 97.162811,119.718643 
	C94.747261,119.815025 92.331718,119.911407 89.971794,120.066216 
	C89.971794,120.066216 90.050583,120.048889 90.008919,119.146645 
	C90.008919,116.899963 90.008919,114.653275 90.008919,112.428795 
	C87.014465,112.428795 84.670990,112.428795 82.029823,112.428795 
	C82.029823,114.963066 82.029823,117.093277 81.089684,119.262566 
	C74.338661,119.262566 67.587631,119.262566 60.736275,119.262566 
	C60.525997,116.619530 60.360432,114.538475 60.195740,112.468414 
	C57.664059,112.468414 55.437775,112.468414 53.276611,112.468414 
	C53.276611,115.034340 53.276611,117.275848 53.276611,119.944397 
	C55.642002,119.944397 57.709908,119.944397 59.790184,119.944397 
	C59.790184,122.622902 59.790184,124.861984 59.790184,127.090485 
	C57.408073,127.216591 55.316032,127.327332 53.352455,127.431282 
	C53.352455,135.101120 53.352455,142.307266 53.352455,149.487015 
	C60.633228,149.487015 67.543419,149.487015 74.971977,149.487015 
	C74.971977,146.768890 74.971977,144.317596 75.838837,142.092148 
	C77.791382,142.092148 79.743927,142.092148 81.934593,142.092148 
	C82.131744,144.810669 82.294220,147.051178 82.473419,149.522247 
	C84.943840,149.522247 87.165749,149.522247 90.028091,149.522247 
	C90.028091,144.521088 90.028091,139.756638 90.608528,135.012085 
	C90.799736,134.981720 90.990936,134.951370 92.084229,134.759262 
	C98.640381,134.759262 105.196533,134.759262 112.233833,134.759262 
	C112.096672,131.857697 111.982346,129.439270 112.757629,126.763687 
	C114.895607,126.763687 117.033577,126.763687 119.695175,126.763687 
	C119.695175,132.041855 119.695175,136.928772 119.695175,141.839386 
	C124.949211,141.839386 129.673218,141.839386 134.595398,141.839386 
	C134.755554,139.375977 134.899765,137.157928 135.042526,134.961899 
	C137.565384,134.827133 139.670837,134.714645 141.924362,134.594254 
	C142.068100,132.076828 142.196472,129.828583 142.334320,127.414360 
	C144.922760,127.237656 147.203171,127.081985 149.430771,126.869911 
	C149.430771,126.869911 149.348495,126.841377 149.525955,127.753342 
	C149.525955,129.969543 149.525955,132.185730 149.525955,134.907883 
	C154.858536,134.907883 159.422913,134.907883 164.433945,135.771347 
	C164.433945,137.866821 164.433945,139.962280 164.433945,142.461258 
	C156.687225,142.461258 149.604279,142.461258 142.120758,142.461258 
	C142.120758,149.950104 142.120758,157.032593 142.120758,164.330460 
	C139.500259,164.510773 137.271118,164.664139 134.670868,164.843063 
	C134.670868,169.776810 134.670868,174.374191 134.670868,179.113037 
	C132.018234,179.322083 129.756424,179.500336 127.335480,179.691116 
	C127.193726,182.194839 127.067146,184.430466 126.922882,186.978409 
	C124.456055,186.978409 122.345268,186.978409 120.127899,186.978409 
	C120.127899,189.559631 120.127899,191.789352 120.127899,194.146179 
	C127.498306,194.146179 134.620270,194.146179 141.892242,194.146179 
	C142.062836,191.741348 142.222916,189.484879 142.386246,187.182312 
	C144.934708,187.012711 147.184235,186.863022 149.484268,186.709961 
	C149.679672,184.233551 149.847351,182.108521 150.083160,179.947510 
	C150.083160,179.947510 150.048325,179.878784 150.867813,179.416016 
M120.927269,171.919083 
	C122.871056,171.919083 124.814835,171.919083 126.913918,171.919083 
	C127.086151,169.127197 127.224678,166.881775 127.389519,164.209808 
	C129.793396,164.209808 131.881866,164.209808 133.975540,164.209808 
	C133.975540,161.524551 133.975540,159.307587 133.975540,157.115799 
	C131.590286,156.929474 129.524796,156.768143 127.213150,156.587570 
	C127.213150,154.220016 127.213150,152.272263 127.213150,150.180893 
	C121.814301,150.180893 116.700844,150.180893 112.007668,149.288437 
	C112.007668,147.023987 112.007668,144.759521 112.007668,142.296188 
	C107.066666,142.296188 102.360390,142.296188 97.546356,142.296188 
	C97.546356,144.870789 97.546356,147.203613 97.546356,150.056458 
	C102.539772,150.056458 107.136429,150.056458 112.270706,150.834686 
	C112.270706,155.218979 112.270706,159.603256 112.270706,164.095184 
	C115.099564,164.246735 117.185509,164.358475 119.379623,164.476028 
	C119.698357,167.340103 119.985657,169.921692 119.435371,171.954239 
	C117.173225,171.954239 114.911072,171.954239 112.643379,171.954239 
	C112.643379,174.753311 112.643379,176.961624 112.643379,179.128479 
	C115.260063,179.128479 117.495644,179.128479 119.778702,179.128479 
	C119.917137,176.654694 120.037148,174.510147 120.927269,171.919083 
M200.052643,119.799698 
	C198.116272,119.799698 196.179901,119.799698 194.121887,119.799698 
	C194.121887,129.897812 194.121887,139.592178 194.121887,149.508667 
	C199.097275,149.508667 203.819183,149.508667 208.789581,149.508667 
	C208.789581,144.568329 208.789581,139.848511 208.789581,134.939392 
	C206.249878,134.793854 203.868210,134.657379 200.860764,134.485046 
	C200.860764,129.292572 200.860764,124.526405 201.797562,119.776268 
	C204.052765,119.776268 206.307953,119.776268 208.765305,119.776268 
	C208.765305,117.107582 208.765305,114.764664 208.765305,112.414444 
	C206.261215,112.414444 204.069458,112.414444 201.866821,112.414444 
	C201.547119,115.086082 201.260605,117.480476 200.052643,119.799698 
M79.499985,209.066193 
	C87.790741,209.066193 96.081505,209.066193 104.520874,209.066193 
	C104.520874,191.589737 104.520874,174.547546 104.520874,157.427689 
	C87.271126,157.427689 70.352844,157.427689 53.277107,157.427689 
	C53.277107,174.725464 53.277107,191.772873 53.277107,209.066193 
	C61.880894,209.066193 70.190445,209.066193 79.499985,209.066193 
M104.838219,96.417831 
	C104.838219,81.989174 104.838219,67.560524 104.838219,53.167770 
	C87.243027,53.167770 70.304031,53.167770 53.322014,53.167770 
	C53.322014,70.440910 53.322014,87.483902 53.322014,104.544632 
	C70.577492,104.544632 87.492081,104.544632 104.838280,104.544632 
	C104.838280,101.976624 104.838280,99.682037 104.838219,96.417831 
M157.156982,67.506210 
	C157.156982,79.788933 157.156982,92.071655 157.156982,104.473785 
	C174.729202,104.473785 191.773956,104.473785 208.809052,104.473785 
	C208.809052,87.191345 208.809052,70.254608 208.809052,53.265865 
	C191.526672,53.265865 174.478836,53.265865 157.156418,53.265865 
	C157.156418,57.894554 157.156418,62.202396 157.156982,67.506210 
M132.790543,201.595108 
	C126.029671,201.595108 119.268791,201.595108 112.396255,201.595108 
	C112.396255,204.286041 112.396255,206.509216 112.396255,208.852219 
	C119.854706,208.852219 127.056801,208.852219 135.085129,208.852219 
	C134.564896,206.235489 134.112595,203.960419 132.790543,201.595108 
M208.807678,208.824493 
	C208.807678,206.439636 208.807678,204.054794 208.807678,201.576981 
	C206.320831,201.576981 204.249313,201.576981 201.991425,201.576981 
	C201.991425,204.167969 201.991425,206.552643 201.991425,209.189682 
	C204.166672,209.189682 206.112015,209.189682 208.807678,208.824493 
M141.998199,53.583542 
	C141.998199,55.672657 141.998199,57.761772 141.998199,59.819035 
	C144.708969,59.819035 146.929077,59.819035 149.157501,59.819035 
	C149.157501,57.427917 149.157501,55.339256 149.157501,52.877132 
	C146.866501,52.877132 144.766006,52.877132 141.998199,53.583542 
M126.480873,270.867065 
	C126.575043,270.771942 126.738045,270.680939 126.743988,270.580566 
	C126.749916,270.480499 126.598427,270.371124 126.515961,270.265808 
	C126.421661,270.360840 126.327354,270.455841 126.480873,270.867065 
M128.861237,271.577301 
	C128.651520,271.502594 128.441803,271.427917 128.232086,271.353210 
	C128.298294,271.566284 128.364502,271.779388 128.861237,271.577301 
z"/>
<path fill="#080808" opacity="1.000000" stroke="none" 
	d="
M97.964813,120.113495 
	C97.964813,117.638908 97.964813,115.164322 97.964813,112.258224 
	C102.631393,112.258224 107.216049,112.258224 112.296204,112.258224 
	C112.296204,92.307396 112.296204,72.780106 112.296204,53.006538 
	C119.725685,53.006538 126.657486,53.006538 133.944534,53.006538 
	C133.944534,55.183933 133.944534,57.397923 133.944534,60.114861 
	C129.421555,60.114861 124.852089,60.114861 120.115295,60.114861 
	C120.115295,62.870094 120.115295,65.134911 120.115295,67.827927 
	C129.804855,67.827927 139.388474,67.827927 149.165619,67.827927 
	C149.165619,75.368042 149.165619,82.482948 149.165619,90.220718 
	C146.999847,90.220718 144.901779,90.220718 142.394165,90.137619 
	C141.984604,90.054520 142.062393,90.036186 142.008972,89.569855 
	C141.955536,84.537514 141.955536,79.971497 141.955536,75.449234 
	C139.213669,75.449234 137.266586,75.449234 135.045639,75.449234 
	C134.849258,77.974136 134.665161,80.341103 134.499878,82.466347 
	C131.761597,82.466347 129.544678,82.466347 127.304573,82.466347 
	C127.188072,79.958771 127.089706,77.841377 126.985771,75.604126 
	C124.541222,75.604126 122.342873,75.604126 120.268906,75.604126 
	C120.268906,80.653366 120.268906,85.360947 120.268906,90.420120 
	C122.734505,90.420120 124.816422,90.420120 126.921494,90.420120 
	C127.060303,92.902878 127.178459,95.016296 127.318794,97.526367 
	C130.056717,97.255554 132.489090,97.014969 134.823456,96.994400 
	C134.725418,97.214432 134.910706,97.659126 134.841721,98.133255 
	C134.772736,100.676003 134.772736,102.744606 134.772736,104.654678 
	C137.549240,104.654678 139.624832,104.654678 142.063156,104.654678 
	C142.063156,102.227318 142.063156,100.097694 142.025208,97.956299 
	C141.987274,97.944527 141.931976,98.001572 141.931976,98.001572 
	C144.197510,97.878181 146.463058,97.754791 149.334839,97.598389 
	C149.334839,102.370529 149.334839,106.767250 149.195038,111.586456 
	C149.055222,112.008949 149.031937,111.941673 148.598541,112.034164 
	C146.235489,112.126648 144.305817,112.126648 142.364319,112.126648 
	C142.364319,115.063843 142.364319,117.310585 142.364319,119.723450 
	C144.771194,119.845901 146.902466,119.954330 149.029419,120.014130 
	C149.025101,119.965485 148.927536,119.961090 149.085022,120.380081 
	C149.322876,122.841492 149.403229,124.883896 149.483582,126.926315 
	C147.203171,127.081985 144.922760,127.237656 142.334320,127.414360 
	C142.196472,129.828583 142.068100,132.076828 141.924362,134.594254 
	C139.670837,134.714645 137.565384,134.827133 135.042526,134.961899 
	C134.899765,137.157928 134.755554,139.375977 134.595398,141.839386 
	C129.673218,141.839386 124.949211,141.839386 119.695175,141.839386 
	C119.695175,136.928772 119.695175,132.041855 119.695175,126.763687 
	C117.033577,126.763687 114.895607,126.763687 112.354736,126.929840 
	C111.951836,127.095985 112.061882,127.061111 112.239784,126.617180 
	C112.326126,124.117355 112.234566,122.061462 112.139999,119.938095 
	C107.114716,119.938095 102.532776,119.938095 97.928848,119.983978 
	C97.906853,120.029854 97.964813,120.113495 97.964813,120.113495 
M127.130005,111.145157 
	C127.130005,106.741829 127.130005,102.338509 127.130005,98.005020 
	C124.444000,98.005020 122.367836,98.005020 120.126923,98.005020 
	C120.126923,102.799332 120.126923,107.358696 120.126923,112.326370 
	C122.589943,112.205986 124.846886,112.095673 126.952454,112.909599 
	C126.952454,117.622131 126.952454,122.334663 126.952454,127.019699 
	C129.982132,127.019699 132.321213,127.019699 134.547333,127.019699 
	C134.547333,121.860046 134.547333,117.127640 134.547333,112.089653 
	C131.867264,112.089653 129.432907,112.089653 127.130005,111.145157 
z"/>
<path fill="#090909" opacity="1.000000" stroke="none" 
	d="
M157.082565,156.963959 
	C154.772446,157.115402 152.462311,157.266846 149.361282,157.470139 
	C149.361282,161.638229 149.361282,165.883331 148.963928,170.811447 
	C146.469574,171.596252 144.372574,171.698059 142.360229,171.795746 
	C142.360229,174.517181 142.360229,176.891815 142.360229,179.286804 
	C145.139313,179.539734 147.577179,179.761627 150.015045,179.983505 
	C149.847351,182.108521 149.679672,184.233551 149.484268,186.709961 
	C147.184235,186.863022 144.934708,187.012711 142.386246,187.182312 
	C142.222916,189.484879 142.062836,191.741348 141.892242,194.146179 
	C134.620270,194.146179 127.498306,194.146179 120.127899,194.146179 
	C120.127899,191.789352 120.127899,189.559631 120.127899,186.978409 
	C122.345268,186.978409 124.456055,186.978409 126.922882,186.978409 
	C127.067146,184.430466 127.193726,182.194839 127.335480,179.691116 
	C129.756424,179.500336 132.018234,179.322083 134.670868,179.113037 
	C134.670868,174.374191 134.670868,169.776810 134.670868,164.843063 
	C137.271118,164.664139 139.500259,164.510773 142.120758,164.330460 
	C142.120758,157.032593 142.120758,149.950104 142.120758,142.461258 
	C149.604279,142.461258 156.687225,142.461258 164.433945,142.461258 
	C164.433945,139.962280 164.433945,137.866821 164.170837,135.368164 
	C163.907730,134.964966 163.925034,135.061356 164.374664,135.117889 
	C167.234940,135.141052 169.645584,135.107712 172.067688,135.027161 
	C172.079163,134.979950 171.997818,134.926788 171.997818,134.926788 
	C171.997818,137.215744 171.997818,139.504700 171.997818,142.225555 
	C174.389984,142.225555 176.607285,142.225555 179.114075,142.225555 
	C179.286530,144.892426 179.432495,147.149460 179.593994,149.646713 
	C181.901901,149.810684 184.121674,149.968369 186.828644,150.160690 
	C186.828644,152.314651 186.828644,154.252029 186.947937,156.608490 
	C187.067215,157.027573 187.059540,156.947479 186.640472,157.104752 
	C184.112610,157.262024 182.003784,157.262024 179.608368,157.262024 
	C179.608368,162.285614 179.608368,166.978134 179.608368,171.788513 
	C182.043335,171.956284 184.258820,172.108917 186.499588,172.263306 
	C186.662399,174.803726 186.798264,176.923737 186.986893,179.038834 
	C187.039658,179.033920 187.045914,178.928131 186.607544,178.992584 
	C183.936172,179.213043 181.703140,179.369049 179.501404,179.522858 
	C179.501404,182.102432 179.501404,184.191177 179.501404,186.536118 
	C182.180038,186.725937 184.613602,186.898392 187.058807,187.025909 
	C187.070435,186.980988 186.992905,186.929932 186.992905,186.929932 
	C186.852951,189.049423 186.712982,191.168930 186.540298,193.783890 
	C184.364426,193.925018 182.162231,194.067871 179.351288,194.250198 
	C179.351288,196.238235 179.351288,198.164093 179.120789,200.534424 
	C178.890274,200.978882 178.891296,201.234909 178.891296,201.234909 
	C174.278122,201.234909 169.664963,201.234909 164.825317,201.234909 
	C164.606537,204.177048 164.438614,206.435364 164.255875,208.892700 
	C156.974625,208.892700 149.878555,208.892700 142.437729,208.892700 
	C142.437729,206.685822 142.437729,204.453186 142.437729,201.694916 
	C144.478195,201.550064 146.704590,201.392014 149.345703,201.204529 
	C149.553055,198.935730 149.756393,196.710846 149.980789,194.255646 
	C152.231735,194.255646 154.356903,194.255646 156.822495,194.255646 
	C156.955765,191.790878 157.077209,189.544754 157.210052,187.087555 
	C159.667221,187.087555 161.906158,187.087555 164.393860,187.087555 
	C164.518372,189.378937 164.633377,191.495056 164.763306,193.885925 
	C167.054794,193.885925 169.281708,193.885925 171.734131,193.885925 
	C171.734131,179.337250 171.734131,164.940872 171.734131,149.950668 
	C167.453857,149.950668 163.196747,149.950668 158.186203,149.980072 
	C157.345184,150.349380 157.257599,150.689255 157.169998,151.029144 
	C157.149323,152.751373 157.128632,154.473602 157.076233,156.610657 
	C157.044540,157.025482 157.082565,156.963959 157.082565,156.963959 
z"/>
<path fill="#090909" opacity="1.000000" stroke="none" 
	d="
M78.999985,209.066193 
	C70.190445,209.066193 61.880894,209.066193 53.277107,209.066193 
	C53.277107,191.772873 53.277107,174.725464 53.277107,157.427689 
	C70.352844,157.427689 87.271126,157.427689 104.520874,157.427689 
	C104.520874,174.547546 104.520874,191.589737 104.520874,209.066193 
	C96.081505,209.066193 87.790741,209.066193 78.999985,209.066193 
M66.633522,164.258545 
	C64.525963,164.258545 62.418404,164.258545 60.260170,164.258545 
	C60.260170,177.138840 60.260170,189.391083 60.260170,201.630493 
	C72.882462,201.630493 85.247055,201.630493 97.423111,201.630493 
	C97.423111,189.001617 97.423111,176.769104 97.423111,164.258545 
	C87.228760,164.258545 77.417366,164.258545 66.633522,164.258545 
z"/>
<path fill="#080808" opacity="1.000000" stroke="none" 
	d="
M104.838249,96.902641 
	C104.838280,99.682037 104.838280,101.976624 104.838280,104.544632 
	C87.492081,104.544632 70.577492,104.544632 53.322014,104.544632 
	C53.322014,87.483902 53.322014,70.440910 53.322014,53.167770 
	C70.304031,53.167770 87.243027,53.167770 104.838219,53.167770 
	C104.838219,67.560524 104.838219,81.989174 104.838249,96.902641 
M77.501137,59.996998 
	C71.739349,59.996998 65.977570,59.996998 60.309242,59.996998 
	C60.309242,72.922249 60.309242,85.171028 60.309242,97.496086 
	C72.852203,97.496086 85.094574,97.496086 97.566544,97.496086 
	C97.566544,84.966431 97.566544,72.721123 97.566544,59.996998 
	C91.073280,59.996998 84.786720,59.996998 77.501137,59.996998 
z"/>
<path fill="#080808" opacity="1.000000" stroke="none" 
	d="
M157.156708,67.008224 
	C157.156418,62.202396 157.156418,57.894554 157.156418,53.265865 
	C174.478836,53.265865 191.526672,53.265865 208.809052,53.265865 
	C208.809052,70.254608 208.809052,87.191345 208.809052,104.473785 
	C191.773956,104.473785 174.729202,104.473785 157.156982,104.473785 
	C157.156982,92.071655 157.156982,79.788933 157.156708,67.008224 
M201.987656,79.499535 
	C201.987656,73.086555 201.987656,66.673584 201.987656,60.208153 
	C189.160278,60.208153 176.935745,60.208153 164.533371,60.208153 
	C164.533371,72.766945 164.533371,85.103172 164.533371,97.538963 
	C177.084824,97.538963 189.302704,97.538963 201.987656,97.538963 
	C201.987656,91.705986 201.987656,86.102219 201.987656,79.499535 
z"/>
<path fill="#101010" opacity="1.000000" stroke="none" 
	d="
M163.947510,134.936432 
	C159.422913,134.907883 154.858536,134.907883 149.525955,134.907883 
	C149.525955,132.185730 149.525955,129.969543 149.936340,127.407928 
	C152.461945,127.062508 154.577148,127.062508 156.727112,127.062508 
	C156.727112,124.365189 156.727112,122.141846 156.727112,119.961090 
	C153.915176,119.961090 151.421356,119.961090 148.927536,119.961090 
	C148.927536,119.961090 149.025101,119.965485 149.153000,119.576607 
	C149.197906,116.772377 149.114929,114.357025 149.031937,111.941673 
	C149.031937,111.941673 149.055222,112.008949 149.028931,112.032135 
	C161.322327,112.055313 173.642029,112.055313 186.364471,112.055313 
	C186.364471,114.691772 186.364471,117.047783 186.364471,119.833488 
	C184.125351,119.833488 182.030441,119.833488 179.674408,119.833488 
	C179.674408,122.316887 179.674408,124.401413 179.674408,126.845016 
	C181.715317,126.980484 183.827606,127.120697 186.354614,127.288437 
	C186.354614,129.605072 186.354614,131.954941 186.354614,134.732727 
	C181.811371,134.732727 177.358765,134.732727 172.451996,134.829758 
	C171.997818,134.926788 172.079163,134.979950 172.096863,134.555161 
	C172.114548,129.401321 172.114548,124.672264 172.114548,120.025444 
	C169.127365,120.025444 167.006317,120.025444 164.734375,120.025444 
	C164.456833,125.181534 164.190948,130.121445 163.925049,135.061356 
	C163.925034,135.061356 163.907730,134.964966 163.947510,134.936432 
z"/>
<path fill="#0B0B0B" opacity="1.000000" stroke="none" 
	d="
M74.971977,141.866302 
	C74.971977,144.317596 74.971977,146.768890 74.971977,149.487015 
	C67.543419,149.487015 60.633228,149.487015 53.352455,149.487015 
	C53.352455,142.307266 53.352455,135.101120 53.352455,127.431282 
	C55.316032,127.327332 57.408073,127.216591 59.790184,127.090485 
	C59.790184,124.861984 59.790184,122.622902 59.790184,119.944397 
	C57.709908,119.944397 55.642002,119.944397 53.276611,119.944397 
	C53.276611,117.275848 53.276611,115.034340 53.276611,112.468414 
	C55.437775,112.468414 57.664059,112.468414 60.195740,112.468414 
	C60.360432,114.538475 60.525997,116.619530 60.736275,119.262566 
	C67.587631,119.262566 74.338661,119.262566 81.504555,119.514305 
	C82.002113,119.931038 82.084801,120.096031 82.211983,120.710083 
	C82.256485,123.214439 82.256485,125.269730 82.256485,127.283646 
	C79.456734,127.417305 77.361694,127.517326 74.985413,127.630768 
	C74.985413,130.278992 74.985413,132.694214 75.020767,135.072632 
	C75.056122,135.035828 75.065475,134.934174 74.597221,134.881134 
	C69.710518,134.828094 65.292068,134.828094 60.654488,134.828094 
	C60.654488,137.447006 60.654488,139.519089 60.654488,142.066391 
	C65.580765,142.066391 70.323380,142.066391 75.057915,142.009125 
	C75.049835,141.951843 74.971977,141.866302 74.971977,141.866302 
z"/>
<path fill="#131313" opacity="1.000000" stroke="none" 
	d="
M187.033600,157.049652 
	C191.646683,157.071732 196.293396,157.071732 201.483704,157.071732 
	C201.483704,164.343491 201.483704,171.570068 201.483704,179.009659 
	C204.252808,179.215302 206.503754,179.382477 208.896881,179.560211 
	C208.896881,181.941040 208.896881,184.065659 208.896881,186.787735 
	C201.813751,186.787735 194.864532,186.787735 187.454102,186.858826 
	C186.992905,186.929932 187.070435,186.980988 187.037369,186.573761 
	C187.018173,183.753738 187.032043,181.340927 187.045914,178.928131 
	C187.045914,178.928131 187.039658,179.033920 187.440338,179.161041 
	C189.778320,179.288177 191.715591,179.288177 193.794785,179.288177 
	C193.794785,174.182892 193.794785,169.459229 193.794785,164.515427 
	C191.359802,164.330856 189.137833,164.162445 186.542831,163.965759 
	C186.730042,161.422958 186.894791,159.185211 187.059540,156.947479 
	C187.059540,156.947479 187.067215,157.027573 187.033600,157.049652 
z"/>
<path fill="#060606" opacity="1.000000" stroke="none" 
	d="
M200.860764,119.760231 
	C200.860764,124.526405 200.860764,129.292572 200.860764,134.485046 
	C203.868210,134.657379 206.249878,134.793854 208.789581,134.939392 
	C208.789581,139.848511 208.789581,144.568329 208.789581,149.508667 
	C203.819183,149.508667 199.097275,149.508667 194.121887,149.508667 
	C194.121887,139.592178 194.121887,129.897812 194.121887,119.799698 
	C196.179901,119.799698 198.116272,119.799698 200.494568,119.799187 
	C200.936508,119.798676 200.860764,119.760231 200.860764,119.760231 
z"/>
<path fill="#080808" opacity="1.000000" stroke="none" 
	d="
M111.587379,150.180893 
	C116.700844,150.180893 121.814301,150.180893 127.213150,150.180893 
	C127.213150,152.272263 127.213150,154.220016 127.213150,156.587570 
	C129.524796,156.768143 131.590286,156.929474 133.975540,157.115799 
	C133.975540,159.307587 133.975540,161.524551 133.975540,164.209808 
	C131.881866,164.209808 129.793396,164.209808 127.389519,164.209808 
	C127.224678,166.881775 127.086151,169.127197 126.913918,171.919083 
	C124.814835,171.919083 122.871056,171.919083 120.567177,172.180115 
	C120.207085,172.441147 120.272957,172.503265 120.272957,172.503265 
	C119.985657,169.921692 119.698357,167.340103 119.379623,164.476028 
	C117.185509,164.358475 115.099564,164.246735 112.270706,164.095184 
	C112.270706,159.603256 112.270706,155.218979 111.960770,150.471191 
	C111.650841,150.107681 111.587379,150.180893 111.587379,150.180893 
z"/>
<path fill="#131313" opacity="1.000000" stroke="none" 
	d="
M89.916168,120.007790 
	C92.331718,119.911407 94.747261,119.815025 97.563812,119.916069 
	C97.964813,120.113495 97.906853,120.029854 97.882385,120.445450 
	C97.857910,122.800728 97.857910,124.740410 97.857910,127.061111 
	C102.844780,127.061111 107.453331,127.061111 112.061882,127.061111 
	C112.061882,127.061111 111.951836,127.095985 111.909927,127.058411 
	C111.982346,129.439270 112.096672,131.857697 112.233833,134.759262 
	C105.196533,134.759262 98.640381,134.759262 91.333138,134.475220 
	C90.360085,129.463379 90.138123,124.735580 89.916168,120.007790 
z"/>
<path fill="#F1F1F1" opacity="1.000000" stroke="none" 
	d="
M89.943985,120.037003 
	C90.138123,124.735580 90.360085,129.463379 90.882088,134.556091 
	C90.990936,134.951370 90.799736,134.981720 89.850189,134.979095 
	C84.389702,135.000549 79.687553,135.055008 74.985413,135.109451 
	C74.985413,132.694214 74.985413,130.278992 74.985413,127.630768 
	C77.361694,127.517326 79.456734,127.417305 82.256485,127.283646 
	C82.256485,125.269730 82.256485,123.214439 82.638901,120.612442 
	C85.364410,120.060127 87.707497,120.054504 90.050583,120.048889 
	C90.050583,120.048889 89.971794,120.066216 89.943985,120.037003 
z"/>
<path fill="#080808" opacity="1.000000" stroke="none" 
	d="
M133.225418,201.640228 
	C134.112595,203.960419 134.564896,206.235489 135.085129,208.852219 
	C127.056801,208.852219 119.854706,208.852219 112.396255,208.852219 
	C112.396255,206.509216 112.396255,204.286041 112.396255,201.595108 
	C119.268791,201.595108 126.029671,201.595108 133.225418,201.640228 
z"/>
<path fill="#101010" opacity="1.000000" stroke="none" 
	d="
M75.020767,135.072632 
	C79.687553,135.055008 84.389702,135.000549 89.559967,134.969147 
	C90.028091,139.756638 90.028091,144.521088 90.028091,149.522247 
	C87.165749,149.522247 84.943840,149.522247 82.473419,149.522247 
	C82.294220,147.051178 82.131744,144.810669 81.934593,142.092148 
	C79.743927,142.092148 77.791382,142.092148 75.405411,141.979218 
	C74.971977,141.866302 75.049835,141.951843 75.064468,141.563354 
	C75.074562,139.094650 75.070023,137.014404 75.065475,134.934174 
	C75.065475,134.934174 75.056122,135.035828 75.020767,135.072632 
z"/>
<path fill="#131313" opacity="1.000000" stroke="none" 
	d="
M111.691963,150.082062 
	C107.136429,150.056458 102.539772,150.056458 97.546356,150.056458 
	C97.546356,147.203613 97.546356,144.870789 97.546356,142.296188 
	C102.360390,142.296188 107.066666,142.296188 112.007668,142.296188 
	C112.007668,144.759521 112.007668,147.023987 111.797523,149.734665 
	C111.587379,150.180893 111.650841,150.107681 111.691963,150.082062 
z"/>
<path fill="#030303" opacity="1.000000" stroke="none" 
	d="
M149.985535,171.931030 
	C154.604294,171.931030 159.223053,171.931030 164.162186,171.931030 
	C164.162186,174.396591 164.162186,176.590652 164.162186,179.416016 
	C159.700485,179.416016 155.284149,179.416016 150.392944,179.145844 
	C149.940567,176.560791 149.963058,174.245911 149.985535,171.931030 
z"/>
<path fill="#CFCFCF" opacity="1.000000" stroke="none" 
	d="
M149.983307,171.727386 
	C149.963058,174.245911 149.940567,176.560791 149.983200,179.377228 
	C150.048325,179.878784 150.083160,179.947510 150.049103,179.965515 
	C147.577179,179.761627 145.139313,179.539734 142.360229,179.286804 
	C142.360229,176.891815 142.360229,174.517181 142.360229,171.795746 
	C144.372574,171.698059 146.469574,171.596252 148.979156,171.279175 
	C149.720978,171.046997 149.917404,171.200287 149.983307,171.727386 
z"/>
<path fill="#373737" opacity="1.000000" stroke="none" 
	d="
M179.015915,200.954315 
	C181.446335,201.091675 183.751114,201.253601 186.470551,201.444672 
	C186.470551,203.843231 186.470551,206.228699 186.470551,208.996918 
	C184.289078,208.996918 181.913788,208.996918 178.963455,208.996918 
	C178.963455,206.648361 178.963455,204.367798 178.927368,201.661072 
	C178.891296,201.234909 178.890274,200.978882 179.015915,200.954315 
z"/>
<path fill="#101010" opacity="1.000000" stroke="none" 
	d="
M208.432526,209.007080 
	C206.112015,209.189682 204.166672,209.189682 201.991425,209.189682 
	C201.991425,206.552643 201.991425,204.167969 201.991425,201.576981 
	C204.249313,201.576981 206.320831,201.576981 208.807678,201.576981 
	C208.807678,204.054794 208.807678,206.439636 208.432526,209.007080 
z"/>
<path fill="#131313" opacity="1.000000" stroke="none" 
	d="
M200.955292,119.836769 
	C201.260605,117.480476 201.547119,115.086082 201.866821,112.414444 
	C204.069458,112.414444 206.261215,112.414444 208.765305,112.414444 
	C208.765305,114.764664 208.765305,117.107582 208.765305,119.776268 
	C206.307953,119.776268 204.052765,119.776268 201.329163,119.768250 
	C200.860764,119.760231 200.936508,119.798676 200.955292,119.836769 
z"/>
<path fill="#373737" opacity="1.000000" stroke="none" 
	d="
M90.029755,119.597763 
	C87.707497,120.054504 85.364410,120.060127 82.594406,120.163383 
	C82.084801,120.096031 82.002113,119.931038 81.974625,119.494766 
	C82.029823,117.093277 82.029823,114.963066 82.029823,112.428795 
	C84.670990,112.428795 87.014465,112.428795 90.008919,112.428795 
	C90.008919,114.653275 90.008919,116.899963 90.029755,119.597763 
z"/>
<path fill="#131313" opacity="1.000000" stroke="none" 
	d="
M120.182114,172.403381 
	C120.037148,174.510147 119.917137,176.654694 119.778702,179.128479 
	C117.495644,179.128479 115.260063,179.128479 112.643379,179.128479 
	C112.643379,176.961624 112.643379,174.753311 112.643379,171.954239 
	C114.911072,171.954239 117.173225,171.954239 119.854164,172.228760 
	C120.272957,172.503265 120.207085,172.441147 120.182114,172.403381 
z"/>
<path fill="#E8E8E8" opacity="1.000000" stroke="none" 
	d="
M149.085022,120.380081 
	C151.421356,119.961090 153.915176,119.961090 156.727112,119.961090 
	C156.727112,122.141846 156.727112,124.365189 156.727112,127.062508 
	C154.577148,127.062508 152.461945,127.062508 149.847626,126.951942 
	C149.348495,126.841377 149.430771,126.869911 149.457184,126.898109 
	C149.403229,124.883896 149.322876,122.841492 149.085022,120.380081 
z"/>
<path fill="#2D2D2D" opacity="1.000000" stroke="none" 
	d="
M134.910706,97.659126 
	C134.910706,97.659126 134.725418,97.214432 134.718109,96.566010 
	C134.710800,94.051140 134.710800,92.184685 134.710800,90.036186 
	C137.576721,90.036186 139.819550,90.036186 142.062393,90.036186 
	C142.062393,90.036186 141.984604,90.054520 141.958069,90.025368 
	C142.052155,92.389053 142.172775,94.781891 142.112671,97.588150 
	C141.931976,98.001572 141.987274,97.944527 141.577148,97.937820 
	C139.081573,97.840446 136.996140,97.749786 134.910706,97.659126 
z"/>
<path fill="#A8A8A8" opacity="1.000000" stroke="none" 
	d="
M100.984077,271.026520 
	C102.472458,271.840942 103.960838,272.655396 105.751999,273.635498 
	C105.839279,273.374176 106.216095,272.246063 106.418755,271.639343 
	C110.013557,271.639343 113.223831,271.639343 116.731239,271.639343 
	C116.731239,271.573883 116.876320,272.940735 116.710052,272.979706 
	C112.367508,273.997925 108.015327,275.074738 103.600502,275.584167 
	C102.886856,275.666534 101.870018,273.121155 100.998619,271.394653 
	C101.003914,270.998840 100.984077,271.026520 100.984077,271.026520 
z"/>
<path fill="#131313" opacity="1.000000" stroke="none" 
	d="
M157.010239,157.036911 
	C159.389618,157.048340 161.803314,157.048340 164.377991,157.048340 
	C164.377991,159.491577 164.377991,161.571671 164.377991,163.978943 
	C162.045685,163.978943 159.827530,163.978943 157.203171,163.978943 
	C157.093307,162.004654 156.978195,159.935791 156.972809,157.415436 
	C157.082565,156.963959 157.044540,157.025482 157.010239,157.036911 
z"/>
<path fill="#030303" opacity="1.000000" stroke="none" 
	d="
M142.331848,53.230339 
	C144.766006,52.877132 146.866501,52.877132 149.157501,52.877132 
	C149.157501,55.339256 149.157501,57.427917 149.157501,59.819035 
	C146.929077,59.819035 144.708969,59.819035 141.998199,59.819035 
	C141.998199,57.761772 141.998199,55.672657 142.331848,53.230339 
z"/>
<path fill="#A8A8A8" opacity="1.000000" stroke="none" 
	d="
M101.017509,270.988312 
	C100.695930,270.496582 100.360748,270.015381 100.025574,269.534180 
	C100.229584,269.408539 100.433586,269.282898 100.637589,269.157257 
	C100.692543,269.621338 100.747498,270.085419 100.893265,270.788025 
	C100.984077,271.026520 101.003914,270.998840 101.017509,270.988312 
z"/>
<path fill="#A8A8A8" opacity="1.000000" stroke="none" 
	d="
M128.137680,274.846069 
	C127.496468,274.978668 126.855255,275.111267 126.214050,275.243866 
	C126.508820,274.801208 126.803589,274.358551 127.572128,274.107544 
	C128.076508,274.481537 128.107086,274.663818 128.137680,274.846069 
z"/>
<path fill="#CFCFCF" opacity="1.000000" stroke="none" 
	d="
M157.348312,150.909607 
	C157.257599,150.689255 157.345184,150.349380 157.725845,150.050507 
	C157.901947,150.357590 157.737854,150.590439 157.348312,150.909607 
z"/>
<path fill="#A8A8A8" opacity="1.000000" stroke="none" 
	d="
M126.356964,270.708984 
	C126.327354,270.455841 126.421661,270.360840 126.515961,270.265808 
	C126.598427,270.371124 126.749916,270.480499 126.743988,270.580566 
	C126.738045,270.680939 126.575043,270.771942 126.356964,270.708984 
z"/>
<path fill="#373737" opacity="1.000000" stroke="none" 
	d="
M128.645981,271.784882 
	C128.364502,271.779388 128.298294,271.566284 128.232086,271.353210 
	C128.441803,271.427917 128.651520,271.502594 128.645981,271.784882 
z"/>
<path fill="#373737" opacity="1.000000" stroke="none" 
	d="
M128.464462,274.751648 
	C128.107086,274.663818 128.076508,274.481537 127.868790,274.085876 
	C128.058197,274.134094 128.424713,274.395660 128.464462,274.751648 
z"/>
<path fill="#F6F6F6" opacity="1.000000" stroke="none" 
	d="
M142.008972,89.569855 
	C139.819550,90.036186 137.576721,90.036186 134.710800,90.036186 
	C134.710800,92.184685 134.710800,94.051140 134.816132,96.345985 
	C132.489090,97.014969 130.056717,97.255554 127.318794,97.526367 
	C127.178459,95.016296 127.060303,92.902878 126.921494,90.420120 
	C124.816422,90.420120 122.734505,90.420120 120.268906,90.420120 
	C120.268906,85.360947 120.268906,80.653366 120.268906,75.604126 
	C122.342873,75.604126 124.541222,75.604126 126.985771,75.604126 
	C127.089706,77.841377 127.188072,79.958771 127.304573,82.466347 
	C129.544678,82.466347 131.761597,82.466347 134.499878,82.466347 
	C134.665161,80.341103 134.849258,77.974136 135.045639,75.449234 
	C137.266586,75.449234 139.213669,75.449234 141.955536,75.449234 
	C141.955536,79.971497 141.955536,84.537514 142.008972,89.569855 
z"/>
<path fill="#EFEFEF" opacity="1.000000" stroke="none" 
	d="
M126.998535,112.089653 
	C129.432907,112.089653 131.867264,112.089653 134.547333,112.089653 
	C134.547333,117.127640 134.547333,121.860046 134.547333,127.019699 
	C132.321213,127.019699 129.982132,127.019699 126.952454,127.019699 
	C126.952454,122.334663 126.952454,117.622131 127.008331,112.480118 
	C127.064201,112.050644 126.998535,112.089653 126.998535,112.089653 
z"/>
<path fill="#F3F3F3" opacity="1.000000" stroke="none" 
	d="
M112.239784,126.617180 
	C107.453331,127.061111 102.844780,127.061111 97.857910,127.061111 
	C97.857910,124.740410 97.857910,122.800728 97.904373,120.399567 
	C102.532776,119.938095 107.114716,119.938095 112.139999,119.938095 
	C112.234566,122.061462 112.326126,124.117355 112.239784,126.617180 
z"/>
<path fill="#FEFEFE" opacity="1.000000" stroke="none" 
	d="
M127.084015,112.018005 
	C124.846886,112.095673 122.589943,112.205986 120.126923,112.326370 
	C120.126923,107.358696 120.126923,102.799332 120.126923,98.005020 
	C122.367836,98.005020 124.444000,98.005020 127.130005,98.005020 
	C127.130005,102.338509 127.130005,106.741829 127.064270,111.617401 
	C126.998535,112.089653 127.064201,112.050644 127.084015,112.018005 
z"/>
<path fill="#E8E8E8" opacity="1.000000" stroke="none" 
	d="
M148.598541,112.034164 
	C149.114929,114.357025 149.197906,116.772377 149.157318,119.625244 
	C146.902466,119.954330 144.771194,119.845901 142.364319,119.723450 
	C142.364319,117.310585 142.364319,115.063843 142.364319,112.126648 
	C144.305817,112.126648 146.235489,112.126648 148.598541,112.034164 
z"/>
<path fill="#F6F6F6" opacity="1.000000" stroke="none" 
	d="
M134.841721,98.133255 
	C136.996140,97.749786 139.081573,97.840446 141.615082,97.949593 
	C142.063156,100.097694 142.063156,102.227318 142.063156,104.654678 
	C139.624832,104.654678 137.549240,104.654678 134.772736,104.654678 
	C134.772736,102.744606 134.772736,100.676003 134.841721,98.133255 
z"/>
<path fill="#EFEFEF" opacity="1.000000" stroke="none" 
	d="
M186.640472,157.104752 
	C186.894791,159.185211 186.730042,161.422958 186.542831,163.965759 
	C189.137833,164.162445 191.359802,164.330856 193.794785,164.515427 
	C193.794785,169.459229 193.794785,174.182892 193.794785,179.288177 
	C191.715591,179.288177 189.778320,179.288177 187.387573,179.165955 
	C186.798264,176.923737 186.662399,174.803726 186.499588,172.263306 
	C184.258820,172.108917 182.043335,171.956284 179.608368,171.788513 
	C179.608368,166.978134 179.608368,162.285614 179.608368,157.262024 
	C182.003784,157.262024 184.112610,157.262024 186.640472,157.104752 
z"/>
<path fill="#E8E8E8" opacity="1.000000" stroke="none" 
	d="
M164.374664,135.117889 
	C164.190948,130.121445 164.456833,125.181534 164.734375,120.025444 
	C167.006317,120.025444 169.127365,120.025444 172.114548,120.025444 
	C172.114548,124.672264 172.114548,129.401321 172.085388,134.602356 
	C169.645584,135.107712 167.234940,135.141052 164.374664,135.117889 
z"/>
<path fill="#CFCFCF" opacity="1.000000" stroke="none" 
	d="
M186.607544,178.992584 
	C187.032043,181.340927 187.018173,183.753738 187.025726,186.618683 
	C184.613602,186.898392 182.180038,186.725937 179.501404,186.536118 
	C179.501404,184.191177 179.501404,182.102432 179.501404,179.522858 
	C181.703140,179.369049 183.936172,179.213043 186.607544,178.992584 
z"/>
<path fill="#F5F5F5" opacity="1.000000" stroke="none" 
	d="
M67.119751,164.258545 
	C77.417366,164.258545 87.228760,164.258545 97.423111,164.258545 
	C97.423111,176.769104 97.423111,189.001617 97.423111,201.630493 
	C85.247055,201.630493 72.882462,201.630493 60.260170,201.630493 
	C60.260170,189.391083 60.260170,177.138840 60.260170,164.258545 
	C62.418404,164.258545 64.525963,164.258545 67.119751,164.258545 
M67.929161,181.535461 
	C67.929161,185.626358 67.929161,189.717239 67.929161,193.724182 
	C75.527748,193.724182 82.558510,193.724182 89.435806,193.724182 
	C89.435806,186.342285 89.435806,179.313324 89.435806,172.407288 
	C82.121101,172.407288 75.208939,172.407288 67.929199,172.407288 
	C67.929199,175.298065 67.929199,177.924881 67.929161,181.535461 
z"/>
<path fill="#F5F5F5" opacity="1.000000" stroke="none" 
	d="
M78.000656,59.996998 
	C84.786720,59.996998 91.073280,59.996998 97.566544,59.996998 
	C97.566544,72.721123 97.566544,84.966431 97.566544,97.496086 
	C85.094574,97.496086 72.852203,97.496086 60.309242,97.496086 
	C60.309242,85.171028 60.309242,72.922249 60.309242,59.996998 
	C65.977570,59.996998 71.739349,59.996998 78.000656,59.996998 
M83.368164,89.852959 
	C85.447433,89.852959 87.526711,89.852959 89.616486,89.852959 
	C89.616486,82.216965 89.616486,75.307899 89.616486,68.183899 
	C82.363785,68.183899 75.334190,68.183899 68.240921,68.183899 
	C68.240921,75.471207 68.240921,82.497543 68.240921,89.853378 
	C73.163101,89.853378 77.780777,89.853378 83.368164,89.852959 
z"/>
<path fill="#F5F5F5" opacity="1.000000" stroke="none" 
	d="
M201.987656,79.998993 
	C201.987656,86.102219 201.987656,91.705986 201.987656,97.538963 
	C189.302704,97.538963 177.084824,97.538963 164.533371,97.538963 
	C164.533371,85.103172 164.533371,72.766945 164.533371,60.208153 
	C176.935745,60.208153 189.160278,60.208153 201.987656,60.208153 
	C201.987656,66.673584 201.987656,73.086555 201.987656,79.998993 
M172.849472,89.755409 
	C179.764923,89.755409 186.680389,89.755409 193.556519,89.755409 
	C193.556519,82.187164 193.556519,75.140747 193.556519,68.315201 
	C186.158417,68.315201 179.107361,68.315201 172.145020,68.315201 
	C172.145020,75.508476 172.145020,82.314575 172.849472,89.755409 
z"/>
<path fill="#F6F6F6" opacity="1.000000" stroke="none" 
	d="
M74.597229,134.881134 
	C75.070023,137.014404 75.074562,139.094650 75.072548,141.620636 
	C70.323380,142.066391 65.580765,142.066391 60.654488,142.066391 
	C60.654488,139.519089 60.654488,137.447006 60.654488,134.828094 
	C65.292068,134.828094 69.710518,134.828094 74.597229,134.881134 
z"/>
<path fill="#060606" opacity="1.000000" stroke="none" 
	d="
M67.929184,181.043579 
	C67.929199,177.924881 67.929199,175.298065 67.929199,172.407288 
	C75.208939,172.407288 82.121101,172.407288 89.435806,172.407288 
	C89.435806,179.313324 89.435806,186.342285 89.435806,193.724182 
	C82.558510,193.724182 75.527748,193.724182 67.929161,193.724182 
	C67.929161,189.717239 67.929161,185.626358 67.929184,181.043579 
z"/>
<path fill="#060606" opacity="1.000000" stroke="none" 
	d="
M82.883316,89.853165 
	C77.780777,89.853378 73.163101,89.853378 68.240921,89.853378 
	C68.240921,82.497543 68.240921,75.471207 68.240921,68.183899 
	C75.334190,68.183899 82.363785,68.183899 89.616486,68.183899 
	C89.616486,75.307899 89.616486,82.216965 89.616486,89.852959 
	C87.526711,89.852959 85.447433,89.852959 82.883316,89.853165 
z"/>
<path fill="#060606" opacity="1.000000" stroke="none" 
	d="
M172.497253,89.438042 
	C172.145020,82.314575 172.145020,75.508476 172.145020,68.315201 
	C179.107361,68.315201 186.158417,68.315201 193.556519,68.315201 
	C193.556519,75.140747 193.556519,82.187164 193.556519,89.755409 
	C186.680389,89.755409 179.764923,89.755409 172.497253,89.438042 
z"/>
</svg>