<svg width="21" height="20" viewBox="0 0 21 20" fill="none" xmlns="http://www.w3.org/2000/svg">
<path d="M12.0677 0.152925C10.7753 -0.0758235 9.45037 -0.0477084 8.16876 0.235665C6.88715 0.519038 5.67392 1.05212 4.59836 1.80446C3.52281 2.55679 2.606 3.51365 1.90031 4.62037C1.19463 5.72709 0.713877 6.962 0.48553 8.25455C0.483612 8.25956 0.483612 8.26511 0.48553 8.27013C0.143273 10.2178 0.386217 12.2232 1.18364 14.0329C1.98107 15.8425 3.29717 17.375 4.96553 18.4367C6.6339 19.4984 8.57961 20.0416 10.5566 19.9975C12.5337 19.9535 14.4533 19.3242 16.0727 18.1892C17.6921 17.0543 18.9386 15.4647 19.6547 13.6213C20.3707 11.778 20.5241 9.7637 20.0954 7.83319C19.6667 5.90268 18.6753 4.14262 17.2464 2.77556C15.8175 1.4085 14.0153 0.495821 12.0677 0.152925ZM19.5462 11.6261C19.17 13.7937 18.0413 15.7592 16.3588 17.1767C14.6763 18.5941 12.5477 19.3728 10.3477 19.3756C9.80769 19.3748 9.26874 19.3279 8.73672 19.2354H8.70556C6.88647 18.9133 5.20359 18.0594 3.86941 16.7816C2.53523 15.5038 1.60957 13.8593 1.20932 12.0558C0.809067 10.2523 0.952164 8.37065 1.62054 6.64841C2.28892 4.92617 3.45261 3.44059 4.96468 2.37923C6.47675 1.31787 8.2694 0.728324 10.1163 0.685039C11.9632 0.641754 13.7815 1.14667 15.3416 2.13602C16.9017 3.12538 18.1337 4.55482 18.8821 6.24386C19.6304 7.93289 19.8615 9.80579 19.5462 11.6261ZM14.143 11.8691H13.6974C12.938 11.8722 12.1857 11.7228 11.485 11.4298C10.7863 11.1405 10.1512 10.7171 9.61544 10.1834C8.7426 9.32442 8.19894 8.18636 8.07924 6.96764C8.07924 6.84611 8.07924 6.7277 8.07924 6.60618C8.08002 5.5547 8.36304 4.5227 8.89875 3.61793L7.30024 3.33437L5.50542 13.4676L13.607 14.8979L14.143 11.8691ZM7.70844 12.6575L7.61807 12.4331L6.90139 12.3085L6.73624 12.4799L6.31558 12.4051L7.18495 11.5575L7.63677 11.6416L8.1478 12.7354L7.70844 12.6575ZM9.94573 12.2212L9.36615 12.1184L9.21659 12.9254L8.81151 12.8538L8.95484 12.0498L8.37215 11.947L8.40331 11.7725H8.41889L9.97689 12.0498L9.94573 12.2212ZM11.9088 12.8943C11.8903 12.9819 11.8459 13.0619 11.7815 13.1241C11.7171 13.1863 11.6356 13.2278 11.5474 13.2433C11.4344 13.2655 11.3197 13.277 11.2046 13.2776C10.8762 13.277 10.5538 13.1899 10.2698 13.0252C10.1909 12.9802 10.1275 12.9123 10.088 12.8305C10.0485 12.7487 10.0347 12.6569 10.0486 12.5671C10.0648 12.4779 10.1088 12.3962 10.1743 12.3335C10.2397 12.2708 10.3233 12.2304 10.4131 12.2181C10.5219 12.1968 10.6326 12.1863 10.7434 12.1869C11.0723 12.1867 11.3952 12.2749 11.6782 12.4425C11.759 12.4843 11.8246 12.5504 11.8659 12.6314C11.9073 12.7124 11.9223 12.8043 11.9088 12.8943ZM13.4917 13.6857L12.1301 13.4427L12.3014 12.4643L12.7065 12.5359L12.5663 13.3399L13.5229 13.5081L13.4917 13.6857ZM11.5006 12.8195C11.4911 12.8705 11.469 12.9182 11.4364 12.9585C11.4037 12.9987 11.3615 13.0302 11.3137 13.0501C11.2345 13.0721 11.1528 13.0837 11.0706 13.0844C10.8837 13.0819 10.7021 13.022 10.5502 12.913C10.5121 12.8779 10.4833 12.834 10.4664 12.785C10.4496 12.736 10.4452 12.6836 10.4536 12.6325C10.4632 12.5816 10.4853 12.5338 10.5179 12.4936C10.5505 12.4533 10.5927 12.4218 10.6406 12.402C10.7165 12.3744 10.7967 12.3607 10.8774 12.3614C11.0662 12.3672 11.2492 12.4279 11.404 12.5359C11.4427 12.5713 11.4717 12.6158 11.4886 12.6654C11.5055 12.7149 11.5096 12.7679 11.5006 12.8195ZM7.52459 12.243L7.04161 12.1527L7.35321 11.8161L7.52459 12.243ZM15.3801 4.76462L14.2271 11.3861C13.5038 11.336 12.8063 11.0966 12.2047 10.6919C11.6031 10.2872 11.1185 9.73141 10.7995 9.08029C9.21035 5.93624 12.4822 4.24736 12.4822 4.24736L15.3801 4.76462ZM3.85082 11.894L3.65139 11.1649L1.64469 11.7227C1.67334 11.794 1.6983 11.8668 1.71947 11.9408C1.74573 12.014 1.76146 12.0906 1.76621 12.1683L2.65739 11.9221C2.80384 12.4549 3.02196 12.8102 3.54857 12.6668C3.87575 12.5733 3.98792 12.3085 3.87575 11.8972L3.85082 11.894ZM3.34603 12.2056C3.26159 12.2388 3.16827 12.2418 3.08193 12.2139C2.99559 12.1861 2.92154 12.1292 2.87239 12.053C2.85046 11.9932 2.83378 11.9317 2.82254 11.8691L3.6327 11.6479L3.68255 11.8317C3.73241 11.9938 3.60777 12.1589 3.37095 12.2243L3.34603 12.2056ZM4.47402 13.3617L4.16554 12.8039L2.35202 13.8758C2.39564 13.9413 2.44238 14.0036 2.47978 14.069C2.51717 14.1345 2.54833 14.2061 2.5826 14.2747L3.44262 13.7823V13.801C3.37719 13.9194 3.29929 14.0659 3.25255 14.1469L2.88174 14.7888C2.9316 14.8667 2.98768 14.9384 3.03443 15.0194C3.08117 15.1004 3.11856 15.1877 3.16218 15.2687L3.26189 15.0599C3.41769 14.7483 3.57349 14.4367 3.72929 14.1532C3.81253 14.2591 3.93149 14.3311 4.06394 14.3558C4.1964 14.3804 4.33331 14.356 4.44909 14.2871C4.52977 14.2435 4.59583 14.1771 4.63905 14.0962C4.68227 14.0153 4.70073 13.9235 4.69214 13.8322C4.65836 13.6703 4.59269 13.5167 4.49895 13.3804L4.47402 13.3617ZM4.26525 13.7948C4.2258 13.8287 4.18417 13.8599 4.14061 13.8883C4.09771 13.9216 4.04916 13.947 3.99727 13.9631C3.94796 13.9768 3.89643 13.9807 3.84562 13.9745C3.79481 13.9683 3.74572 13.9522 3.70115 13.927C3.65658 13.9018 3.61742 13.8681 3.58589 13.8278C3.55436 13.7874 3.53109 13.7413 3.51741 13.692L4.22786 13.2776C4.34626 13.4552 4.48649 13.6421 4.29018 13.8135L4.26525 13.7948ZM5.94166 15.0412C5.91706 15.0129 5.88994 14.9868 5.86065 14.9633C5.63898 14.772 5.35051 14.6764 5.05846 14.6974C4.76641 14.7184 4.49461 14.8544 4.30264 15.0755C4.26239 15.1137 4.22683 15.1566 4.1967 15.2032C4.11792 15.3139 4.06172 15.4391 4.03131 15.5715C4.00089 15.7039 3.99685 15.841 4.01942 15.9749C4.04199 16.1089 4.09073 16.2371 4.16284 16.3523C4.23496 16.4674 4.32906 16.5672 4.43974 16.646L4.50207 16.7083C4.72455 16.9038 5.01546 17.003 5.31103 16.9843C5.60659 16.9656 5.88268 16.8305 6.07877 16.6086C6.11304 16.5712 6.14732 16.5338 6.17848 16.4933C6.33178 16.2743 6.39526 16.0049 6.35584 15.7406C6.31642 15.4762 6.1771 15.2371 5.96659 15.0724L5.94166 15.0412ZM5.72977 16.2346C5.39636 16.6179 4.92273 16.8329 4.5675 16.5213L4.53323 16.4808C4.41487 16.3357 4.35891 16.1495 4.3776 15.9632C4.39629 15.7769 4.48812 15.6055 4.63294 15.4868C5.08787 14.9664 5.49919 14.8948 5.81079 15.1752L5.8326 15.197C5.89973 15.2713 5.95111 15.3585 5.98365 15.4532C6.01618 15.5479 6.02921 15.6482 6.02193 15.748C6.01465 15.8479 5.98722 15.9453 5.94129 16.0343C5.89536 16.1233 5.83189 16.202 5.7547 16.2658L5.72977 16.2346ZM8.35034 16.4746C8.29645 16.545 8.26013 16.6272 8.24439 16.7145C8.08772 16.6186 7.92539 16.5322 7.75829 16.4559L7.01045 18.1915C6.9419 18.1572 6.87646 18.1167 6.8048 18.0856C6.73313 18.0544 6.66146 18.0326 6.58668 18.0077L7.33763 16.2752C7.16128 16.2008 6.98015 16.1383 6.79545 16.0882C6.82025 16.0515 6.84213 16.013 6.86088 15.9729C6.87623 15.9323 6.88872 15.8906 6.89828 15.8483L8.35034 16.4746ZM9.10129 16.8547L8.98912 17.506L9.30072 17.5621C9.42529 17.5839 9.55132 17.5964 9.67776 17.5995C9.64298 17.681 9.62803 17.7696 9.63413 17.8581C9.51344 17.8262 9.39053 17.8032 9.26644 17.7895L8.95484 17.7334L8.82397 18.5031C9.05826 18.5405 9.29437 18.5655 9.5313 18.5779C9.49649 18.6605 9.48155 18.7502 9.48768 18.8396L8.33476 18.6433L8.68375 16.5805L9.83667 16.7768C9.8019 16.8584 9.78695 16.947 9.79305 17.0355C9.56813 16.9553 9.33667 16.8948 9.10129 16.8547ZM12.0366 18.3753L11.9961 18.6433C11.8157 18.7509 11.6133 18.8159 11.404 18.8334C11.1301 18.8896 10.8451 18.8349 10.6114 18.6812C10.3778 18.5276 10.2146 18.2876 10.1576 18.0139C10.1545 17.9838 10.1545 17.9536 10.1576 17.9235C10.1351 17.779 10.1415 17.6314 10.1764 17.4893C10.2113 17.3472 10.274 17.2135 10.361 17.0959C10.4479 16.9782 10.5573 16.8789 10.6829 16.8039C10.8084 16.7288 10.9476 16.6793 11.0924 16.6584C11.1515 16.6522 11.211 16.6522 11.27 16.6584C11.482 16.6399 11.6953 16.6708 11.8932 16.7488C11.8745 16.8547 11.8652 16.9607 11.8527 17.0604H11.8091C11.7463 16.9815 11.6653 16.919 11.573 16.8783C11.4808 16.8376 11.38 16.8199 11.2794 16.8267C10.7715 16.8765 10.6094 17.3813 10.6562 17.83C10.706 18.3535 10.9989 18.6963 11.4695 18.6495C11.6717 18.6212 11.8573 18.5218 11.9929 18.3691H12.0335L12.0366 18.3753ZM13.7722 18.1541C13.7005 18.1759 13.6257 18.1946 13.5541 18.2227C13.4822 18.2508 13.4124 18.2842 13.3453 18.3224L12.6567 16.5743C12.4776 16.6428 12.3045 16.7262 12.1394 16.8236C12.1302 16.7794 12.1188 16.7357 12.1051 16.6927C12.0869 16.6529 12.0661 16.6144 12.0428 16.5774L13.5136 16.0009C13.518 16.0437 13.5285 16.0857 13.5447 16.1256C13.5612 16.1672 13.5821 16.2069 13.607 16.244C13.4288 16.2875 13.253 16.3405 13.0804 16.4029L13.7722 18.1541ZM15.9534 16.836L14.975 17.5216L13.7566 15.8233L14.7132 15.1472C14.7457 15.2295 14.7969 15.3031 14.8628 15.3622C14.6526 15.4705 14.4515 15.5955 14.2614 15.7361L14.6384 16.2752L14.9002 16.0913C15.0019 16.0165 15.0997 15.9364 15.1931 15.8514C15.2286 15.9328 15.2806 16.006 15.3458 16.0664C15.2366 16.1229 15.1323 16.1886 15.0342 16.2627L14.7724 16.4465L15.2211 17.0697C15.4152 16.9328 15.6014 16.7851 15.7789 16.6273C15.796 16.6676 15.8169 16.7062 15.8412 16.7426C15.8942 16.7799 15.9378 16.8142 15.9534 16.8547V16.836ZM17.0409 13.9693L16.9599 13.9008C16.7669 13.7574 16.5249 13.6966 16.2871 13.7317C16.0492 13.7668 15.8351 13.8948 15.6917 14.0877L15.0404 14.9103L16.6794 16.2315L17.2154 15.5554L17.2839 15.465C17.3667 15.3518 17.4261 15.2234 17.4587 15.087C17.4913 14.9507 17.4964 14.8092 17.4738 14.6709C17.4512 14.5326 17.4013 14.4001 17.3269 14.2813C17.2526 14.1624 17.1554 14.0595 17.0409 13.9787V13.9693ZM16.9879 15.5273L16.8259 15.733L15.4673 14.6735L15.6543 14.4367C15.9222 14.0939 16.2775 14.0223 16.7231 14.3806C17.2839 14.8231 17.2528 15.2064 16.9879 15.5398V15.5273ZM9.45652 1.98825C9.47218 1.92701 9.47472 1.86316 9.46398 1.80087C9.45324 1.73858 9.42946 1.67926 9.3942 1.6268C9.30848 1.5177 9.18295 1.44709 9.04521 1.43049C8.9104 1.39601 8.76749 1.41499 8.64636 1.48346C8.59216 1.51776 8.54601 1.56336 8.51105 1.61714C8.47609 1.67092 8.45316 1.73161 8.44382 1.79506C8.42926 1.86935 8.43684 1.94628 8.46563 2.0163C8.49768 2.08836 8.54689 2.15148 8.60896 2.20014C8.52105 2.21868 8.44072 2.26319 8.37838 2.3279C8.31456 2.38833 8.27287 2.46843 8.25997 2.55537C8.24457 2.62048 8.24415 2.68825 8.25872 2.75355C8.27329 2.81886 8.30248 2.88001 8.3441 2.9324C8.44425 3.0383 8.57517 3.11002 8.71832 3.13742C8.86148 3.16482 9.00963 3.14652 9.1418 3.08509C9.19714 3.05073 9.2448 3.00532 9.28179 2.9517C9.31879 2.89809 9.34432 2.83742 9.35681 2.77349C9.37141 2.68752 9.35832 2.59913 9.31942 2.52109C9.2841 2.43789 9.22571 2.36653 9.15115 2.31544C9.22528 2.29695 9.29376 2.26057 9.35058 2.20949C9.40843 2.14883 9.44553 2.07136 9.45652 1.98825ZM9.05455 2.70494C9.04655 2.77727 9.01347 2.84451 8.96107 2.89501C8.89673 2.93117 8.82164 2.94332 8.74919 2.92929C8.71349 2.92696 8.67868 2.91715 8.64701 2.90051C8.61534 2.88387 8.58751 2.86077 8.56534 2.83269C8.54489 2.80243 8.53099 2.76822 8.52455 2.73226C8.51811 2.69631 8.51927 2.6594 8.52795 2.62392C8.5409 2.549 8.58079 2.48139 8.64013 2.43384C8.67003 2.41264 8.70425 2.3983 8.74034 2.39184C8.77642 2.38537 8.81349 2.38695 8.8489 2.39645C8.88575 2.40104 8.92119 2.41341 8.95289 2.43275C8.98459 2.4521 9.01181 2.47796 9.03274 2.50863C9.05987 2.57031 9.06748 2.63881 9.05455 2.70494ZM9.0826 2.11601C9.05659 2.13419 9.02715 2.14687 8.99608 2.1533C8.96501 2.15973 8.93295 2.15977 8.90187 2.1534C8.8703 2.14881 8.84008 2.13754 8.81322 2.12035C8.78635 2.10316 8.76346 2.08043 8.74607 2.05369C8.71102 1.99573 8.69715 1.92741 8.70681 1.86037C8.71647 1.79333 8.74906 1.73171 8.79904 1.686C8.82407 1.66596 8.85364 1.65236 8.88514 1.64638C8.91665 1.64041 8.94914 1.64224 8.97977 1.65173C9.01216 1.65485 9.04329 1.66586 9.07044 1.68378C9.0976 1.70171 9.11996 1.726 9.13557 1.75455C9.16936 1.81293 9.18046 1.88171 9.16673 1.94775C9.15994 2.01216 9.13006 2.07193 9.0826 2.11601ZM10.5689 2.85762L10.7684 1.77948L10.4817 1.72651L9.54688 2.72052L9.52196 2.8919L10.2449 3.029L10.1763 3.40292L10.4536 3.45589L10.5253 3.08197L10.7341 3.12248L10.7746 2.89813L10.5689 2.85762ZM10.3041 2.80465L9.84914 2.72052L10.41 2.13782L10.4381 2.10666L10.3041 2.80465ZM11.5193 2.18145L11.3947 2.57406C11.4834 2.54132 11.5797 2.53483 11.672 2.55537C11.7423 2.56472 11.8096 2.58974 11.8689 2.62857C11.9282 2.6674 11.9781 2.71905 12.0148 2.77972C12.0848 2.91388 12.1036 3.06894 12.0677 3.21596C12.0451 3.36697 11.9646 3.50328 11.8434 3.59611C11.7802 3.63636 11.7097 3.6637 11.6359 3.67653C11.5621 3.68937 11.4864 3.68745 11.4134 3.6709C11.2702 3.64702 11.1412 3.57029 11.0519 3.45589C11.0118 3.40486 10.9823 3.34631 10.9652 3.2837C10.948 3.22108 10.9436 3.15567 10.9522 3.09132L11.2233 3.14429C11.2171 3.2159 11.2358 3.28745 11.2763 3.34683C11.3209 3.39961 11.3827 3.43493 11.4508 3.44655C11.4888 3.4549 11.5282 3.45447 11.566 3.44529C11.6038 3.43611 11.639 3.41842 11.6689 3.39357C11.7334 3.32984 11.775 3.24659 11.7873 3.15676C11.8091 3.06932 11.7968 2.97687 11.753 2.89813C11.7317 2.86065 11.702 2.82854 11.6664 2.80425C11.6308 2.77995 11.59 2.7641 11.5474 2.75791C11.5032 2.74819 11.4575 2.74819 11.4134 2.75791C11.3662 2.76677 11.3215 2.78592 11.2825 2.814L11.0768 2.71428L11.3292 1.89789L12.2267 2.06927L12.1706 2.31232L11.5193 2.18145ZM13.4731 2.75168C13.4565 2.82788 13.4174 2.89736 13.3609 2.9511C13.299 3.00555 13.2255 3.045 13.1459 3.06639C13.2245 3.1069 13.2876 3.17221 13.3253 3.25221C13.3631 3.33221 13.3734 3.42242 13.3546 3.50887C13.3443 3.5768 13.3191 3.64162 13.2809 3.69871C13.2427 3.7558 13.1923 3.80375 13.1334 3.83916C13.0008 3.90693 12.8489 3.92674 12.7034 3.89525C12.5589 3.87367 12.4265 3.80198 12.3295 3.69271C12.287 3.64141 12.2569 3.58092 12.2418 3.51603C12.2267 3.45114 12.2268 3.38362 12.2422 3.31879L12.5196 3.37176C12.5122 3.40499 12.512 3.43941 12.519 3.47272C12.526 3.50603 12.54 3.53747 12.5601 3.56495C12.606 3.62409 12.673 3.66317 12.747 3.67401C12.8212 3.68865 12.8981 3.67766 12.9651 3.64285C12.9959 3.62129 13.0218 3.59351 13.0411 3.5613C13.0604 3.52909 13.0728 3.49318 13.0773 3.45589C13.0862 3.4189 13.0875 3.38049 13.081 3.34299C13.0746 3.30549 13.0606 3.26969 13.0399 3.23777C12.9837 3.17407 12.9061 3.13307 12.8218 3.12248L12.6598 3.09132L12.7003 2.87943L12.8685 2.91371C12.9423 2.9293 13.0192 2.91941 13.0867 2.88566C13.117 2.86585 13.1428 2.83973 13.1621 2.80908C13.1815 2.77843 13.194 2.74398 13.1988 2.70805C13.2114 2.67889 13.2178 2.64749 13.2178 2.61575C13.2178 2.58401 13.2114 2.55261 13.1988 2.52345C13.1863 2.49429 13.1679 2.468 13.1449 2.44616C13.1219 2.42433 13.0946 2.40741 13.0649 2.39645C13.0411 2.39349 13.017 2.39349 12.9932 2.39645C12.9598 2.387 12.9249 2.38461 12.8905 2.38944C12.8562 2.39427 12.8232 2.40621 12.7938 2.4245C12.7661 2.44189 12.7425 2.46513 12.7248 2.49258C12.707 2.52003 12.6955 2.55103 12.6909 2.58341L12.4011 2.52109C12.4156 2.44026 12.4535 2.36547 12.5102 2.30609C12.5711 2.24344 12.6492 2.20009 12.7346 2.18145C12.851 2.15434 12.9725 2.1579 13.0872 2.19176C13.2019 2.22562 13.3059 2.28863 13.3889 2.37464C13.4288 2.42791 13.4567 2.4892 13.4707 2.55428C13.4847 2.61937 13.4844 2.68671 13.4699 2.75168H13.4731ZM14.196 2.68001L14.0682 3.07263C14.1577 3.03854 14.2554 3.03203 14.3487 3.05393C14.4189 3.06328 14.4862 3.0883 14.5455 3.12713C14.6049 3.16596 14.6547 3.21761 14.6914 3.27828C14.7642 3.41149 14.7842 3.56722 14.7475 3.71452C14.7409 3.78311 14.7208 3.84972 14.6883 3.91052C14.6559 3.97132 14.6118 4.02512 14.5585 4.06884C14.5053 4.11255 14.4439 4.14532 14.3779 4.16526C14.312 4.1852 14.2427 4.19192 14.1742 4.18504L14.09 4.16946C13.9479 4.14868 13.8182 4.07664 13.7255 3.96692C13.6835 3.91446 13.653 3.85383 13.6358 3.78891C13.6187 3.72399 13.6152 3.65621 13.6257 3.58988L13.8968 3.64285C13.8873 3.7147 13.9064 3.7874 13.9498 3.8454C13.993 3.89976 14.0555 3.93545 14.1243 3.94511C14.1618 3.95368 14.2008 3.95336 14.2381 3.94416C14.2754 3.93496 14.3101 3.91714 14.3393 3.89213C14.4047 3.82871 14.4475 3.74547 14.4608 3.65532C14.4795 3.56773 14.4674 3.4764 14.4266 3.39669C14.4043 3.36147 14.3747 3.33152 14.3397 3.30892C14.3047 3.28632 14.2653 3.27161 14.224 3.26582C14.1792 3.2547 14.1324 3.25368 14.0872 3.26284C14.0419 3.272 13.9992 3.29111 13.9623 3.31879L13.7566 3.22219L14.0059 2.39334L14.9064 2.56472L14.8597 2.80465L14.196 2.68001Z" fill="#091A4B"/>
</svg>
