<svg width="26" height="26" viewBox="0 0 26 26" fill="none" xmlns="http://www.w3.org/2000/svg">
<rect width="26" height="26" rx="13" fill="url(#paint0_linear_561_2034)"/>
<path d="M13.0041 7.26079C14.8748 7.26079 15.0963 7.269 15.832 7.30182C16.5157 7.3319 16.885 7.44677 17.1311 7.54249C17.4565 7.66829 17.6917 7.82145 17.9352 8.06486C18.1813 8.311 18.3317 8.54347 18.4575 8.86892C18.5532 9.11506 18.6681 9.48701 18.6982 10.168C18.731 10.9064 18.7392 11.128 18.7392 12.9959C18.7392 14.8666 18.731 15.0881 18.6982 15.8238C18.6681 16.5075 18.5532 16.8767 18.4575 17.1229C18.3317 17.4483 18.1786 17.6835 17.9352 17.9269C17.689 18.1731 17.4565 18.3235 17.1311 18.4493C16.885 18.545 16.513 18.6599 15.832 18.69C15.0936 18.7228 14.8721 18.731 13.0041 18.731C11.1334 18.731 10.9119 18.7228 10.1762 18.69C9.49249 18.6599 9.12328 18.545 8.87714 18.4493C8.55168 18.3235 8.31648 18.1703 8.07307 17.9269C7.82693 17.6808 7.67651 17.4483 7.55071 17.1229C7.45498 16.8767 7.34012 16.5048 7.31003 15.8238C7.27721 15.0854 7.26901 14.8638 7.26901 12.9959C7.26901 11.1252 7.27721 10.9037 7.31003 10.168C7.34012 9.48427 7.45498 9.11506 7.55071 8.86892C7.67651 8.54347 7.82967 8.30826 8.07307 8.06486C8.31921 7.81871 8.55168 7.66829 8.87714 7.54249C9.12328 7.44677 9.49523 7.3319 10.1762 7.30182C10.9119 7.269 11.1334 7.26079 13.0041 7.26079ZM13.0041 6C11.1034 6 10.8654 6.0082 10.1188 6.04102C9.37489 6.07384 8.86346 6.19418 8.42041 6.36648C7.95821 6.54698 7.56711 6.78492 7.17876 7.17601C6.78767 7.56437 6.54973 7.95546 6.36922 8.41492C6.19693 8.86072 6.07659 9.36941 6.04377 10.1133C6.01095 10.8627 6.00275 11.1006 6.00275 13.0014C6.00275 14.9021 6.01095 15.1401 6.04377 15.8867C6.07659 16.6306 6.19693 17.142 6.36922 17.5851C6.54973 18.0473 6.78767 18.4384 7.17876 18.8267C7.56711 19.2151 7.95821 19.4558 8.41767 19.6335C8.86346 19.8058 9.37215 19.9262 10.1161 19.959C10.8627 19.9918 11.1006 20 13.0014 20C14.9021 20 15.1401 19.9918 15.8867 19.959C16.6306 19.9262 17.142 19.8058 17.5851 19.6335C18.0446 19.4558 18.4356 19.2151 18.824 18.8267C19.2124 18.4384 19.453 18.0473 19.6308 17.5878C19.8031 17.142 19.9234 16.6333 19.9563 15.8894C19.9891 15.1428 19.9973 14.9049 19.9973 13.0041C19.9973 11.1033 19.9891 10.8654 19.9563 10.1188C19.9234 9.37488 19.8031 8.86345 19.6308 8.42039C19.4585 7.95546 19.2206 7.56437 18.8295 7.17601C18.4411 6.78765 18.05 6.54698 17.5906 6.36921C17.1448 6.19691 16.6361 6.07658 15.8922 6.04376C15.1428 6.0082 14.9049 6 13.0041 6Z" fill="white"/>
<path d="M13.0041 9.40497C11.0185 9.40497 9.40768 11.0158 9.40768 13.0014C9.40768 14.9869 11.0185 16.5978 13.0041 16.5978C14.9896 16.5978 16.6005 14.9869 16.6005 13.0014C16.6005 11.0158 14.9896 9.40497 13.0041 9.40497ZM13.0041 15.3343C11.7159 15.3343 10.6712 14.2895 10.6712 13.0014C10.6712 11.7132 11.7159 10.6685 13.0041 10.6685C14.2922 10.6685 15.337 11.7132 15.337 13.0014C15.337 14.2895 14.2922 15.3343 13.0041 15.3343Z" fill="white"/>
<path d="M17.5823 9.26271C17.5823 9.72765 17.2049 10.1023 16.7427 10.1023C16.2778 10.1023 15.9031 9.72491 15.9031 9.26271C15.9031 8.79778 16.2805 8.4231 16.7427 8.4231C17.2049 8.4231 17.5823 8.80051 17.5823 9.26271Z" fill="white"/>
<defs>
<linearGradient id="paint0_linear_561_2034" x1="26" y1="0" x2="0" y2="26" gradientUnits="userSpaceOnUse">
<stop stop-color="#C621FF"/>
<stop offset="0.516671" stop-color="#FF243D"/>
<stop offset="1" stop-color="#FFA837"/>
</linearGradient>
</defs>
</svg>
