<svg xmlns="http://www.w3.org/2000/svg" width="45.469" height="43.172" viewBox="0 0 45.469 43.172">
  <g id="Group_4552" data-name="Group 4552" transform="translate(0)">
    <path id="Path_4013" data-name="Path 4013" d="M171.087,372.228l-12.7-5.119a.271.271,0,0,0-.272,0l-13.111,5.285,12.958,12.958Z" transform="translate(-135.518 -367.073)" fill="#aebac5"/>
    <path id="Path_4014" data-name="Path 4014" d="M126.971,374.33l-5.578-5.578-1.737,1.737,5.627,5.627a3.166,3.166,0,0,0-.211,1.123v11.3a24.418,24.418,0,0,0,3.06,11.834l10.7-10.7,1.529-1.529.207-.207Z" transform="translate(-119.657 -368.123)" fill="#aebac5"/>
    <path id="Path_4015" data-name="Path 4015" d="M147.6,390.786l.208-.207,1.529-1.529,11.076,11.076a24.425,24.425,0,0,0,3.266-12.206v-11.3a3.172,3.172,0,0,0-.393-1.518l5.809-5.809-1.529-1.529-5.895,5.895L147.805,387.52l-1.529,1.529-.207.207-1.529,1.529-11.108,11.108-7.229,7.228-.208-.207h0l1.737,1.737,7.025-7.025a24.425,24.425,0,0,0,6.5,5.46h0a10.2,10.2,0,0,0,10.2,0h0a24.408,24.408,0,0,0,6.232-5.152l6.742,6.742,1.529-1.529-6.914-6.914Z" transform="translate(-123.623 -367.505)" fill="#aebac5"/>
  </g>
</svg>
