<svg width="22" height="18" viewBox="0 0 22 18" fill="none" xmlns="http://www.w3.org/2000/svg">
<path d="M3.5 0.75C2.70435 0.75 1.94129 1.06607 1.37868 1.62868C0.816071 2.19129 0.5 2.95435 0.5 3.75V4.5H21.5V3.75C21.5 2.95435 21.1839 2.19129 20.6213 1.62868C20.0587 1.06607 19.2956 0.75 18.5 0.75H3.5Z" fill="#2990E6"/>
<path fill-rule="evenodd" clip-rule="evenodd" d="M21.5 6.75H0.5V14.25C0.5 15.0456 0.816071 15.8087 1.37868 16.3713C1.94129 16.9339 2.70435 17.25 3.5 17.25H18.5C19.2956 17.25 20.0587 16.9339 20.6213 16.3713C21.1839 15.8087 21.5 15.0456 21.5 14.25V6.75ZM3.5 10.5C3.5 10.3011 3.57902 10.1103 3.71967 9.96967C3.86032 9.82902 4.05109 9.75 4.25 9.75H10.25C10.4489 9.75 10.6397 9.82902 10.7803 9.96967C10.921 10.1103 11 10.3011 11 10.5C11 10.6989 10.921 10.8897 10.7803 11.0303C10.6397 11.171 10.4489 11.25 10.25 11.25H4.25C4.05109 11.25 3.86032 11.171 3.71967 11.0303C3.57902 10.8897 3.5 10.6989 3.5 10.5ZM4.25 12.75C4.05109 12.75 3.86032 12.829 3.71967 12.9697C3.57902 13.1103 3.5 13.3011 3.5 13.5C3.5 13.6989 3.57902 13.8897 3.71967 14.0303C3.86032 14.171 4.05109 14.25 4.25 14.25H7.25C7.44891 14.25 7.63968 14.171 7.78033 14.0303C7.92098 13.8897 8 13.6989 8 13.5C8 13.3011 7.92098 13.1103 7.78033 12.9697C7.63968 12.829 7.44891 12.75 7.25 12.75H4.25Z" fill="#2990E6"/>
</svg>
