<svg width="13" height="14" viewBox="0 0 13 14" fill="none" xmlns="http://www.w3.org/2000/svg">
<path d="M11.9168 4.79025C11.9946 3.86457 12.2738 3.01477 12.7652 2.23553L10.8797 0.420013C10.2841 0.913653 9.60541 1.18721 8.83709 1.23537C8.13261 1.29669 7.46509 1.16789 6.83677 0.848133C6.19109 1.15725 5.52609 1.28689 4.83309 1.23537C4.12773 1.17904 3.4532 0.922168 2.88905 0.495053L0.998768 2.31001C1.46385 3.10017 1.72285 3.92701 1.77353 4.79025C1.79761 5.18757 1.68001 5.73525 1.41541 6.44225C1.29534 6.77615 1.19042 7.11529 1.10097 7.45865C1.03489 7.74117 0.993728 7.97021 0.979728 8.14241C0.970208 8.89589 1.18973 9.57629 1.63997 10.1814C1.99193 10.6229 2.57237 11.1107 3.37821 11.6441C4.25965 12.0761 4.94201 12.3564 5.41997 12.476L5.81645 12.6538C5.94105 12.7109 6.07461 12.7672 6.21377 12.8282C6.51477 13.0018 6.72561 13.1897 6.83677 13.3837C6.97341 13.1735 7.18929 12.9906 7.47601 12.8282C7.64791 12.7573 7.81837 12.6829 7.98729 12.6051L8.28661 12.4763C8.38881 12.4278 8.52237 12.3718 8.68477 12.3099C8.88572 12.2333 9.08771 12.1595 9.29069 12.0885C9.75633 11.93 10.0954 11.7796 10.3107 11.6441C11.0925 11.111 11.664 10.6308 12.0277 10.2021C12.4939 9.59505 12.7207 8.91129 12.7103 8.14297C12.6826 7.79857 12.5311 7.24809 12.2562 6.49797C11.9946 5.76689 11.879 5.19961 11.9168 4.79025Z" fill="#2990E6"/>
</svg>
