<svg width="107" height="20" viewBox="0 0 107 20" fill="none" xmlns="http://www.w3.org/2000/svg">
<path d="M18.7332 0H1.93316C1.37311 0 1.09308 0 0.87917 0.108993C0.691008 0.204867 0.538027 0.357847 0.442154 0.546009C0.33316 0.759921 0.33316 1.03995 0.33316 1.6V18.4C0.33316 18.9601 0.33316 19.2401 0.442154 19.454C0.538027 19.6422 0.691008 19.7951 0.87917 19.891C1.09308 20 1.37311 20 1.93316 20H18.7332C19.2932 20 19.5732 20 19.7872 19.891C19.9753 19.7951 20.1283 19.6422 20.2242 19.454C20.3332 19.2401 20.3332 18.9601 20.3332 18.4V1.6C20.3332 1.03995 20.3332 0.759921 20.2242 0.546009C20.1283 0.357847 19.9753 0.204867 19.7872 0.108993C19.5732 0 19.2932 0 18.7332 0Z" fill="#00B67A"/>
<path d="M40.4007 0H23.6006C23.0406 0 22.7606 0 22.5467 0.108993C22.3585 0.204867 22.2055 0.357847 22.1096 0.546009C22.0006 0.759921 22.0006 1.03995 22.0006 1.6V18.4C22.0006 18.9601 22.0006 19.2401 22.1096 19.454C22.2055 19.6422 22.3585 19.7951 22.5467 19.891C22.7606 20 23.0406 20 23.6006 20H40.4007C40.9607 20 41.2407 20 41.4546 19.891C41.6428 19.7951 41.7958 19.6422 41.8917 19.454C42.0007 19.2401 42.0007 18.9601 42.0007 18.4V1.6C42.0007 1.03995 42.0007 0.759921 41.8917 0.546009C41.7958 0.357847 41.6428 0.204867 41.4546 0.108993C41.2407 0 40.9607 0 40.4007 0Z" fill="#00B67A"/>
<path d="M62.0657 0H45.2657C44.7056 0 44.4256 0 44.2117 0.108993C44.0235 0.204867 43.8705 0.357847 43.7747 0.546009C43.6657 0.759921 43.6657 1.03995 43.6657 1.6V18.4C43.6657 18.9601 43.6657 19.2401 43.7747 19.454C43.8705 19.6422 44.0235 19.7951 44.2117 19.891C44.4256 20 44.7056 20 45.2657 20H62.0657C62.6257 20 62.9058 20 63.1197 19.891C63.3078 19.7951 63.4608 19.6422 63.5567 19.454C63.6657 19.2401 63.6657 18.9601 63.6657 18.4V1.6C63.6657 1.03995 63.6657 0.759921 63.5567 0.546009C63.4608 0.357847 63.3078 0.204867 63.1197 0.108993C62.9058 0 62.6257 0 62.0657 0Z" fill="#00B67A"/>
<path d="M83.7331 0H66.9331C66.3731 0 66.0931 0 65.8791 0.108993C65.691 0.204867 65.538 0.357847 65.4421 0.546009C65.3331 0.759921 65.3331 1.03995 65.3331 1.6V18.4C65.3331 18.9601 65.3331 19.2401 65.4421 19.454C65.538 19.6422 65.691 19.7951 65.8791 19.891C66.0931 20 66.3731 20 66.9331 20H83.7331C84.2932 20 84.5732 20 84.7871 19.891C84.9753 19.7951 85.1283 19.6422 85.2241 19.454C85.3331 19.2401 85.3331 18.9601 85.3331 18.4V1.6C85.3331 1.03995 85.3331 0.759921 85.2241 0.546009C85.1283 0.357847 84.9753 0.204867 84.7871 0.108993C84.5732 0 84.2932 0 83.7331 0Z" fill="#00B67A"/>
<path d="M105.4 0H88.6001C88.04 0 87.76 0 87.5461 0.108993C87.3579 0.204867 87.2049 0.357847 87.1091 0.546009C87.0001 0.759921 87.0001 1.03995 87.0001 1.6V18.4C87.0001 18.9601 87.0001 19.2401 87.1091 19.454C87.2049 19.6422 87.3579 19.7951 87.5461 19.891C87.76 20 88.04 20 88.6001 20H105.4C105.96 20 106.24 20 106.454 19.891C106.642 19.7951 106.795 19.6422 106.891 19.454C107 19.2401 107 18.9601 107 18.4V1.6C107 1.03995 107 0.759921 106.891 0.546009C106.795 0.357847 106.642 0.204867 106.454 0.108993C106.24 0 105.96 0 105.4 0Z" fill="#00B67A" fill-opacity="0.1"/>
<path d="M97.0001 0H88.6001C88.04 0 87.76 0 87.5461 0.108993C87.3579 0.204867 87.2049 0.357847 87.1091 0.546009C87.0001 0.759921 87.0001 1.03995 87.0001 1.6V18.4C87.0001 18.9601 87.0001 19.2401 87.1091 19.454C87.2049 19.6422 87.3579 19.7951 87.5461 19.891C87.76 20 88.04 20 88.6001 20H97.0001V0Z" fill="#00B67A"/>
<path d="M10.3336 13.4791L13.3753 12.7083L14.6461 16.6249L10.3336 13.4791ZM17.3336 8.41661H11.9795L10.3336 3.37494L8.68781 8.41661H3.33365L7.66698 11.5416L6.02115 16.5833L10.3545 13.4583L13.0211 11.5416L17.3336 8.41661Z" fill="white"/>
<path d="M31.9987 13.4791L35.0404 12.7083L36.3112 16.6249L31.9987 13.4791ZM38.9987 8.41661H33.6445L31.9987 3.37494L30.3529 8.41661H24.9987L29.332 11.5416L27.6862 16.5833L32.0195 13.4583L34.6862 11.5416L38.9987 8.41661Z" fill="white"/>
<path d="M53.6667 13.4791L56.7084 12.7083L57.9792 16.6249L53.6667 13.4791ZM60.6667 8.41661H55.3126L53.6667 3.37494L52.0209 8.41661H46.6667L51.0001 11.5416L49.3542 16.5833L53.6876 13.4583L56.3542 11.5416L60.6667 8.41661Z" fill="white"/>
<path d="M75.3336 13.4791L78.3753 12.7083L79.6461 16.6249L75.3336 13.4791ZM82.3336 8.41661H76.9794L75.3336 3.37494L73.6878 8.41661H68.3336L72.667 11.5416L71.0211 16.5833L75.3545 13.4583L78.0211 11.5416L82.3336 8.41661Z" fill="white"/>
<path d="M96.9987 13.4791L100.04 12.7083L101.311 16.6249L96.9987 13.4791ZM103.999 8.41661H98.6445L96.9987 3.37494L95.3528 8.41661H89.9987L94.332 11.5416L92.6862 16.5833L97.0195 13.4583L99.6861 11.5416L103.999 8.41661Z" fill="white"/>
</svg>
