<svg width="26" height="26" viewBox="0 0 26 26" fill="none" xmlns="http://www.w3.org/2000/svg">
<rect width="26" height="26" rx="13" fill="#1D9BF0"/>
<path d="M10.2602 19C15.8331 19 18.8813 14.3828 18.8813 10.3789C18.8813 10.2477 18.8813 10.1172 18.8724 9.98721C19.4654 9.55829 19.9773 9.0272 20.3841 8.41882C19.8312 8.66397 19.2445 8.82467 18.6438 8.89554C19.2764 8.51691 19.7498 7.92131 19.9759 7.21963C19.3812 7.5726 18.7305 7.82133 18.0519 7.95509C17.5951 7.46933 16.9909 7.14766 16.3328 7.03988C15.6747 6.9321 14.9995 7.04421 14.4116 7.35886C13.8236 7.67351 13.3558 8.17316 13.0804 8.78049C12.8051 9.38782 12.7376 10.069 12.8883 10.7185C11.6837 10.6581 10.5052 10.345 9.42942 9.79966C8.35361 9.25427 7.40451 8.48876 6.64372 7.55281C6.25625 8.21984 6.13758 9.00947 6.31186 9.76093C6.48614 10.5124 6.94028 11.1692 7.5818 11.5975C7.09958 11.5834 6.62787 11.4533 6.20658 11.2183V11.2567C6.20677 11.9562 6.44893 12.6342 6.89199 13.1756C7.33505 13.7169 7.95173 14.0884 8.63744 14.2269C8.19136 14.3486 7.72332 14.3663 7.2693 14.2789C7.463 14.8809 7.83997 15.4073 8.34751 15.7846C8.85505 16.1619 9.4678 16.3711 10.1001 16.3831C9.47187 16.8769 8.75245 17.242 7.983 17.4575C7.21355 17.673 6.40916 17.7346 5.61584 17.639C7.0015 18.5281 8.61376 18.9998 10.2602 18.9976" fill="white"/>
</svg>
