<svg xmlns="http://www.w3.org/2000/svg" width="40.613" height="43.384" viewBox="0 0 40.613 43.384">
  <path id="Path_4018" data-name="Path 4018" d="M376.56,375.447l-1.6-1.6-23.793,23.792-6.148-6.148,1.6-1.6,4.556,4.556,19.475-19.475a3.214,3.214,0,0,0-1.73-1.671l-15.342-6.184a.274.274,0,0,0-.274,0l-15.342,6.184a3.22,3.22,0,0,0-2.016,2.986v11.415a24.69,24.69,0,0,0,12.344,21.382h0a10.3,10.3,0,0,0,10.3,0h0a24.69,24.69,0,0,0,12.344-21.382v-6.624Z" transform="translate(-335.947 -367.073)" fill="#7bb041"/>
</svg>
